<svg xmlns="http://www.w3.org/2000/svg" xmlns:xlink="http://www.w3.org/1999/xlink" version="1.1" width="79.01" height="49.69" viewBox="181.371 256.521 56.433 35.490" role="img" aria-label="Mathematical expression from source PDF page 34"><defs><path id="font_1_11" d="M.39698792 .5305786 .24499512 .6923828 .09298706 .5305786 .10598755 .51660159 .24499512 .62446597 .38398744 .51660159 .39698792 .5305786Z" />
<path id="font_6_64" d="M.3039856 .14302063C.3039856 .14900208 .2999878 .15200806 .2939911 .15200806 .2939911 .15200806 .28799439 .15200806 .28599549 .14801026 .28599549 .14801026 .28399659 .14601135 .2769928 .1300354 .2559967 .08010864 .20999146 .010192871 .1519928 .010192871 .12199402 .010192871 .11999512 .03517151 .11999512 .057128908 .11999512 .057128908 .11999512 .07710266 .12298584 .08909607L.20098877 .4016571H.29299928C.31199647 .4016571 .32199098 .4016571 .32199098 .41966249 .32199098 .43066407 .31599427 .43066407 .29599 .43066407H.20799256L.24499512 .5769043C.24899292 .5909271 .24899292 .5929413 .24899292 .59994509 .24899292 .61598208 .23599243 .625 .22299195 .625 .21499634 .625 .19198609 .621994 .18399048 .5899353L.14498902 .43066407H.050994874C.0309906 .43066407 .021987915 .43066407 .021987915 .4116516 .021987915 .4016571 .0289917 .4016571 .04798889 .4016571H.13699341L.070999149 .13801575C.06298828 .10307312 .05999756 .09307861 .05999756 .08010864 .05999756 .033172609 .09298706-.009765625 .14898682-.009765625 .25-.009765625 .3039856 .1360321 .3039856 .14302063Z" />
<path id="font_9_19" d="M.33999635-1.7587891V.040039064H.2709961V-1.6898041H.0069885256V-1.7587891H.33999635Z" />
<path id="font_9_8" d="M.7569885-2.9489899C.7569885-2.9459992 .7569885-2.943985 .7509918-2.9369965 .6549988-2.8209992 .57499697-2.6929932 .5159912-2.5539857 .3849945-2.2479859 .33299256-1.8899841 .33299256-1.4599915 .33299256-1.0339813 .38198854-.6599884 .5299988-.33198548 .58799746-.20498657 .6639862-.08699036 .7529907 .021011353 .7549896 .024017334 .7569885 .026016236 .7569885 .030014039 .7569885 .040039064 .75 .040039064 .7350006 .040039064 .7200012 .040039064 .71798709 .040039064 .71598818 .038009645 .71598818 .038009645 .6529999-.022979737 .57499697-.13298035 .40098573-.37898255 .31298829-.6729889 .2679901-.97099307 .24398804-1.1319885 .23599243-1.29599 .23599243-1.4589844 .23599243-1.8329926 .2829895-2.2149964 .44299317-2.5569916 .5139923-2.7089844 .60899356-2.845993 .70799258-2.949997 .71699526-2.9579926 .71798709-2.9589844 .7350006-2.9589844 .75-2.9589844 .7569885-2.9589844 .7569885-2.9489899Z" />
<path id="font_9_9" d="M.5549927-1.4599915C.5549927-1.0859833 .5079956-.70399478 .34799195-.36198426 .2769928-.20999146 .18199158-.07298279 .08299255 .031021119 .07398987 .039016725 .07299805 .040039064 .055999757 .040039064 .041992189 .040039064 .033996583 .040039064 .033996583 .030014039 .033996583 .026016236 .037994386 .021011353 .039993287 .01802063 .13598633-.09799194 .21598816-.22598267 .2749939-.36499024 .4059906-.67099 .45799256-1.0289917 .45799256-1.4589844 .45799256-1.8849945 .40899659-2.2589875 .26098634-2.5869904 .20298767-2.7139893 .1269989-2.8319855 .037994386-2.9399873 .036987306-2.941986 .033996583-2.9459992 .033996583-2.9489899 .033996583-2.9589844 .041992189-2.9589844 .055999757-2.9589844 .070999149-2.9589844 .07299805-2.9589844 .07499695-2.9569855 .07499695-2.9569855 .13798523-2.895996 .21598816-2.7859956 .3899994-2.5399934 .47799684-2.245987 .522995-1.9479828 .5469971-1.7869873 .5549927-1.6229858 .5549927-1.4599915Z" />
</defs><use data-text="t" xlink:href="#font_6_64" transform="matrix(11.9552,0,0,-11.9552,182.571,284.08)" fill="black" />
<use data-text="�" xlink:href="#font_9_9" transform="matrix(9.9626,0,0,-9.9626,188.77,258.344)" fill="black" />
<use data-text="" xlink:href="#font_9_19" transform="matrix(9.9626,0,0,-9.9626,201.38899,273.289)" fill="black" />
<use data-text="�" xlink:href="#font_9_8" transform="matrix(9.9626,0,0,-9.9626,228.714,258.34407)" fill="black" />
<use data-text="ˆ" xlink:href="#font_1_11" transform="matrix(11.9552,0,0,-11.9552,210.54799,275.87904)" fill="black" />
</svg>
