<svg xmlns="http://www.w3.org/2000/svg" xmlns:xlink="http://www.w3.org/1999/xlink" version="1.1" width="53.99" height="29.29" viewBox="368.946 676.291 38.561 20.918" role="img" aria-label="Mathematical expression from source PDF page 36"><defs><path id="font_14_38" d="M.43998719 .27734376C.43998719 .37638856 .37599183 .44140626 .29599 .44140626 .23999024 .44140626 .19699097 .4053955 .1749878 .38638307L.24398804 .66430667C.24499512 .66630557 .24798584 .68029788 .24798584 .68029788 .24798584 .68530276 .24398804 .6943054 .23199463 .6943054 .22799683 .6943054 .19699097 .69129946 .17399597 .68930056L.117996219 .68530276C.09599304 .68330386 .085998538 .682312 .085998538 .66430667 .085998538 .6502991 .099990848 .6502991 .11199951 .6502991 .1599884 .6502991 .1599884 .64430239 .1599884 .63531497 .1599884 .62931826 .1499939 .5893402 .14399719 .5663452L.056991579 .2183075C.04899597 .18429566 .04899597 .16929627 .04899597 .15228272 .04899597 .049240114 .11199951-.009765625 .18899536-.009765625 .31199647-.009765625 .43998719 .13227844 .43998719 .27734376M.3619995 .3193512C.3619995 .28234864 .33999635 .17529297 .30999757 .11627197 .28399659 .0622406 .23599243 .018234253 .18899536 .018234253 .15299988 .018234253 .116989139 .04623413 .116989139 .119277957 .116989139 .14628601 .12098694 .17129517 .1329956 .21931458L.15499878 .3053589C.1599884 .32336427 .1599884 .32536317 .17199707 .34036256 .20599365 .38238526 .25099183 .4133911 .29299928 .4133911 .34298707 .4133911 .3619995 .36437989 .3619995 .3193512Z" />
<path id="font_17_34" d="M1.019989 .020050049C1.019989 .031036377 1.0119934 .040039064 1 .040039064 .9850006 .040039064 .98098757 .027038575 .97698977 .014038086L.46398927-1.609787 .24899292-.8598633 .10998535-1.0228424 .12599182-1.0378418 .19400025-.9578552 .42399598-1.7597656C.45700074-1.7597656 .45799256-1.7597656 .46598817-1.7357788L1.0149994 .000045776369C1.019989 .015045166 1.019989 .020050049 1.019989 .020050049Z" />
<path id="font_1_24" d="M.70700076 .34220887C.70700076 .36120606 .6899872 .36120606 .6749878 .36120606H.085998538C.07199097 .36120606 .053985597 .36120606 .053985597 .34321595 .053985597 .32421876 .070999149 .32421876 .085998538 .32421876H.6749878C.68899539 .32421876 .70700076 .32421876 .70700076 .34220887M.70700076 .15579224C.70700076 .17480469 .6899872 .17480469 .6749878 .17480469H.085998538C.07199097 .17480469 .053985597 .17480469 .053985597 .15679932 .053985597 .13780213 .070999149 .13780213 .085998538 .13780213H.6749878C.68899539 .13780213 .70700076 .13780213 .70700076 .15579224Z" />
<path id="font_5_64" d="M.3039856 .14302063C.3039856 .14900208 .2999878 .15200806 .2939911 .15200806 .2939911 .15200806 .28799439 .15200806 .28599549 .14801026 .28599549 .14801026 .28399659 .14601135 .2769928 .1300354 .2559967 .08010864 .20999146 .010192871 .1519928 .010192871 .12199402 .010192871 .11999512 .03517151 .11999512 .057128908 .11999512 .057128908 .11999512 .07710266 .12298584 .08909607L.20098877 .4016571H.29299928C.31199647 .4016571 .32199098 .4016571 .32199098 .41966249 .32199098 .43066407 .31599427 .43066407 .29599 .43066407H.20799256L.24499512 .5769043C.24899292 .5909271 .24899292 .5929413 .24899292 .59994509 .24899292 .61598208 .23599243 .625 .22299195 .625 .21499634 .625 .19198609 .621994 .18399048 .5899353L.14498902 .43066407H.050994874C.0309906 .43066407 .021987915 .43066407 .021987915 .4116516 .021987915 .4016571 .0289917 .4016571 .04798889 .4016571H.13699341L.070999149 .13801575C.06298828 .10307312 .05999756 .09307861 .05999756 .08010864 .05999756 .033172609 .09298706-.009765625 .14898682-.009765625 .25-.009765625 .3039856 .1360321 .3039856 .14302063Z" />
</defs><use data-text="t" xlink:href="#font_5_64" transform="matrix(11.9552,0,0,-11.9552,370.14604,690.146)" fill="black" />
<use data-text="=" xlink:href="#font_1_24" transform="matrix(11.9552,0,0,-11.9552,377.69404,690.146)" fill="black" />
<use data-text="�" xlink:href="#font_17_34" transform="matrix(9.9626,0,0,-9.9626,390.12004,678.114)" fill="black" />
<use data-text="b" xlink:href="#font_14_38" transform="matrix(7.9701,0,0,-7.9701,402.681,694.268)" fill="black" />
</svg>
