<svg xmlns="http://www.w3.org/2000/svg" xmlns:xlink="http://www.w3.org/1999/xlink" version="1.1" width="178.03" height="37.14" viewBox="106.864 199.504 127.164 26.528" role="img" aria-label="Mathematical expression from source PDF page 51"><defs><path id="font_1_24" d="M.70700076 .34220887C.70700076 .36120606 .6899872 .36120606 .6749878 .36120606H.085998538C.07199097 .36120606 .053985597 .36120606 .053985597 .34321595 .053985597 .32421876 .070999149 .32421876 .085998538 .32421876H.6749878C.68899539 .32421876 .70700076 .32421876 .70700076 .34220887M.70700076 .15579224C.70700076 .17480469 .6899872 .17480469 .6749878 .17480469H.085998538C.07199097 .17480469 .053985597 .17480469 .053985597 .15679932 .053985597 .13780213 .070999149 .13780213 .085998538 .13780213H.6749878C.68899539 .13780213 .70700076 .13780213 .70700076 .15579224Z" />
<path id="font_1_44" d="M.24798584 0V.0289917C.18399048 .0289917 .17199707 .0289917 .17199707 .074020389V.69433596L.032989503 .6826172V.6536102C.100997928 .6536102 .10899353 .6466217 .10899353 .597641V.07395935C.10899353 .0289917 .09799194 .0289917 .032989503 .0289917V0C.06098938 .0019989014 .10998535 .0019989014 .13999939 .0019989014 .16999817 .0019989014 .21998596 .0019989014 .24798584 0Z" />
<path id="font_1_49" d="M.5209961 0V.0289917C.47099305 .0289917 .44599916 .0289917 .44499208 .059051515V.24342346C.44499208 .3365631 .44499208 .36450196 .42199708 .39640809 .3929901 .4353943 .34599305 .44140626 .31199647 .44140626 .21499634 .44140626 .1769867 .35850526 .16899109 .338562H.16799927V.44140626L.03199768 .4303589V.4013672C.099990848 .4013672 .10798645 .39437867 .10798645 .34553529V.07408142C.10798645 .0289917 .09700012 .0289917 .03199768 .0289917V0C.057998659 .0019989014 .11199951 .0019989014 .13999939 .0019989014 .16899109 .0019989014 .22299195 .0019989014 .24899292 0V.0289917C.18499756 .0289917 .17298889 .0289917 .17298889 .07408142V.26046754C.17298889 .36547853 .24198914 .4213562 .3039856 .4213562 .3659973 .4213562 .37998963 .37045289 .37998963 .3095703V.07408142C.37998963 .0289917 .36898805 .0289917 .3039856 .0289917V0C.32998658 .0019989014 .38398744 .0019989014 .4119873 .0019989014 .44099427 .0019989014 .49499513 .0019989014 .5209961 0Z" />
<path id="font_2_1" d="M.57199099 .059249879C.57199099 .06825256 .5649872 .06825256 .56199648 .06825256 .55400088 .06825256 .5529938 .06526184 .5499878 .057250978 .54100039 .03224182 .5179901 .010238647 .49398805 .010238647 .46299745 .010238647 .46299745 .07426453 .46299745 .13528443 .5649872 .25732423 .58898928 .3843689 .58898928 .3843689 .58898928 .39337159 .58099368 .39337159 .5779877 .39337159 .56900027 .39337159 .56799319 .39038087 .56399539 .3723755 .5509949 .32835389 .5249939 .25032044 .46299745 .16828919V.25332643C.46299745 .35035707 .4079895 .44140626 .3019867 .44140626 .17098999 .44140626 .039993287 .29833985 .039993287 .15629578 .039993287 .06925964 .09399414-.009765625 .19599915-.009765625 .2579956-.009765625 .33198548 .01423645 .40299989 .07426453 .4169922 .018234253 .44799806-.009765625 .4909973-.009765625 .54499819-.009765625 .57199099 .04624939 .57199099 .059249879M.3999939 .0982666C.31199647 .019241333 .23298645 .010238647 .19799805 .010238647 .1269989 .010238647 .10699463 .07325745 .10699463 .120269779 .10699463 .1632843 .1289978 .26533509 .1599884 .32034303 .20098877 .39038087 .25698854 .42138673 .3019867 .42138673 .39898683 .42138673 .39898683 .29434205 .39898683 .21031189L.397995 .13427735C.397995 .11427307 .39898683 .10926819 .3999939 .0982666Z" />
<path id="font_2_12" d="M.49899293 .4086609C.49899293 .43066407 .47999574 .43066407 .46199037 .43066407H.18699646C.1639862 .43066407 .12998963 .43066407 .083999637 .38165284 .057998659 .35269166 .025985718 .29977418 .025985718 .29377748 .025985718 .28779603 .0309906 .28579713 .036987306 .28579713 .04399109 .28579713 .04499817 .28878785 .049987794 .29478456 .101989749 .3766632 .1539917 .3766632 .1789856 .3766632H.2619934L.1579895 .034179689C.15299988 .019210816 .15299988 .017211914 .15299988 .014205933 .15299988 .0032348633 .1599884-.0107421879 .17999268-.0107421879 .21099854-.0107421879 .21598816 .016204834 .21899414 .031188965L.2869873 .3766632H.45298768C.46598817 .3766632 .49899293 .3766632 .49899293 .4086609Z" />
<path id="font_3_1" d="M.69400027 .25045777C.69400027 .27046205 .6749878 .27046205 .6609955 .27046205H.115997318C.101989749 .27046205 .08299255 .27046205 .08299255 .25045777 .08299255 .23046875 .101989749 .23046875 .115997318 .23046875H.6609955C.6749878 .23046875 .69400027 .23046875 .69400027 .25045777Z" />
<path id="font_3_13" d="M.94200137 .24998474C.94200137 .25801087 .93699648 .26000978 .9259949 .26301576 .7659912 .30810548 .6759949 .4092102 .6269989 .50035098 .6159973 .51937869 .6159973 .52137759 .6139984 .52238467 .6100006 .5253906 .6049957 .5253906 .598999 .5253906 .58999636 .5253906 .57899478 .5253906 .57899478 .5133667 .57899478 .5133667 .59799197 .45628358 .67900088 .36714173H.08898926C.07499695 .36714173 .055999757 .36714173 .055999757 .34713746 .055999757 .32714845 .07499695 .32714845 .08999634 .32714845H.70599368C.7220001 .32714845 .723999 .32714845 .7369995 .3171234 .7839966 .28205873 .83099368 .2590027 .8509979 .24998474 .8299866 .24098206 .7839966 .21792603 .73599246 .18286133 .723999 .17285156 .7220001 .17285156 .70599368 .17285156H.08999634C.07499695 .17285156 .055999757 .17285156 .055999757 .15284729 .055999757 .13284302 .07499695 .13284302 .08898926 .13284302H.67900088C.59799197 .044708253 .57899478-.010375977 .57899478-.013381958 .57899478-.025390625 .58999636-.025390625 .598999-.025390625 .6139984-.025390625 .6139984-.024398804 .6239929-.006362915 .6749878 .090774539 .7669983 .19187927 .9249878 .236969 .93699648 .23997498 .94200137 .24197388 .94200137 .24998474Z" />
<path id="font_4_4" d="M.69999697-2.3493806C.69999697-2.3453828 .69799807-2.3433839 .69599917-2.3403779 .6589966-2.3033753 .59199526-2.2363587 .5249939-2.1283417 .3639984-1.8703003 .29100038-1.5452423 .29100038-1.1601868 .29100038-.8911438 .32699586-.54408267 .49198915-.24603272 .57099917-.104003909 .6529999-.021987915 .69699099 .022018433 .69999697 .025009156 .69999697 .027008057 .69999697 .030014039 .69999697 .040039064 .69299319 .040039064 .67900088 .040039064 .6649933 .040039064 .6629944 .040039064 .647995 .025009156 .31298829-.28004457 .20799256-.7381134 .20799256-1.1591797 .20799256-1.5522461 .2979889-1.9483185 .5519867-2.2473603 .57199099-2.2703706 .6100006-2.3113709 .651001-2.3473817 .6629944-2.359375 .6649933-2.359375 .67900088-2.359375 .69299319-2.359375 .69999697-2.359375 .69999697-2.3493806Z" />
<path id="font_4_5" d="M.5269928-1.1601868C.5269928-.76712039 .43699647-.37104798 .18299866-.072006229 .16299439-.04899597 .125-.0079956059 .083999637 .028015137 .07199097 .040039064 .069992069 .040039064 .055999757 .040039064 .04399109 .040039064 .034988405 .040039064 .034988405 .030014039 .034988405 .026016236 .038986207 .022018433 .040985109 .020019532 .07598877-.015991211 .14299011-.08300781 .20999146-.19102478 .37098695-.44906617 .44400025-.77412417 .44400025-1.1591797 .44400025-1.4282227 .4079895-1.7752838 .24299622-2.0733338 .1639862-2.2153626 .08099365-2.2983704 .038986207-2.3403779 .036987306-2.3433839 .034988405-2.3463746 .034988405-2.3493806 .034988405-2.359375 .04399109-2.359375 .055999757-2.359375 .069992069-2.359375 .07199097-2.359375 .08699036-2.3443757 .42199708-2.039322 .5269928-1.581253 .5269928-1.1601868Z" />
</defs><use data-text="l" xlink:href="#font_1_44" transform="matrix(11.9552,0,0,-11.9552,108.06403,215.87213)" fill="black" />
<use data-text="n" xlink:href="#font_1_49" transform="matrix(11.9552,0,0,-11.9552,111.31585,215.87213)" fill="black" />
<use data-text="�" xlink:href="#font_4_4" transform="matrix(9.9626,0,0,-9.9626,119.86903,201.32715)" fill="black" />
<use data-text="�" xlink:href="#font_4_5" transform="matrix(9.9626,0,0,-9.9626,139.98499,201.32703)" fill="black" />
<use data-text="=" xlink:href="#font_1_24" transform="matrix(11.9552,0,0,-11.9552,157.28099,215.87201)" fill="black" />
<use data-text="−" xlink:href="#font_3_1" transform="matrix(11.9552,0,0,-11.9552,176.349,215.87201)" fill="black" />
<use data-text="α" xlink:href="#font_2_1" transform="matrix(11.9552,0,0,-11.9552,185.647,215.87201)" fill="black" />
<use data-text="τ" xlink:href="#font_2_12" transform="matrix(11.9552,0,0,-11.9552,193.16683,215.87201)" fill="black" />
<use data-text="=" xlink:href="#font_1_24" transform="matrix(11.9552,0,0,-11.9552,213.761,215.87201)" fill="black" />
<use data-text="⇒" xlink:href="#font_3_13" transform="matrix(11.9552,0,0,-11.9552,220.873,215.87201)" fill="black" />
<path d="M128.3979949951172 212.88299560546875H138.7899932861328" stroke="black" stroke-width="0.39800000190734863" fill="none" /></svg>
