<svg xmlns="http://www.w3.org/2000/svg" xmlns:xlink="http://www.w3.org/1999/xlink" version="1.1" width="137.39" height="32.80" viewBox="237.606 204.775 98.135 23.426" role="img" aria-label="Mathematical expression from source PDF page 250"><defs><path id="font_1_24" d="M.70700076 .34220887C.70700076 .36120606 .6899872 .36120606 .6749878 .36120606H.085998538C.07199097 .36120606 .053985597 .36120606 .053985597 .34321595 .053985597 .32421876 .070999149 .32421876 .085998538 .32421876H.6749878C.68899539 .32421876 .70700076 .32421876 .70700076 .34220887M.70700076 .15579224C.70700076 .17480469 .6899872 .17480469 .6749878 .17480469H.085998538C.07199097 .17480469 .053985597 .17480469 .053985597 .15679932 .053985597 .13780213 .070999149 .13780213 .085998538 .13780213H.6749878C.68899539 .13780213 .70700076 .13780213 .70700076 .15579224Z" />
<path id="font_4_3" d="M.5319977 .42266847C.5319977 .42266847 .5309906 .43066407 .5219879 .43066407 .5219879 .43066407 .5149994 .43066407 .5130005 .426651 .5109863 .42466737 .47599793 .3567047 .44599916 .28875733 .43099977 .25479127 .41099549 .20982361 .37799073 .12188721 .37599183 .1708374 .37399293 .24778748 .33599855 .33772279 .31599427 .38768006 .28199769 .44065858 .20899964 .44065858 .085998538 .44065858 .018997193 .2837677 .018997193 .25778199 .018997193 .24879456 .025985718 .24879456 .0289917 .24879456 .037994386 .24879456 .037994386 .25079347 .042999269 .2637787 .06399536 .32572938 .12799073 .37469483 .19699097 .37469483 .33599855 .37469483 .35598756 .21980286 .35598756 .12088013 .35598756 .057922365 .34899903 .03694153 .34298707 .016952515 .32398988-.04499817 .29100038-.1689148 .29100038-.19688416 .29100038-.20487976 .2939911-.21386719 .3019867-.21386719 .31698609-.21386719 .32598878-.18089295 .33699037-.14093018 .36099244-.052993776 .36698915-.009017944 .37199403 .030944825 .375 .05493164 .43199159 .21980286 .5109863 .37669374 .5179901 .39268495 .5319977 .41966249 .5319977 .42266847Z" />
<path id="font_4_57" d="M.82699587 .14328003C.82699587 .14828491 .82299807 .15228272 .81700137 .15228272 .80799868 .15228272 .8069916 .14929199 .8019867 .13227844 .7789917 .052246095 .74198916 .010238647 .70199587 .010238647 .69200137 .010238647 .6759949 .011230469 .6759949 .04324341 .6759949 .06925964 .6879883 .10127258 .69200137 .11227417 .70999148 .16029358 .7549896 .27833558 .7549896 .3363495 .7549896 .39637757 .7200012 .44140626 .6439972 .44140626 .57699587 .44140626 .522995 .40338136 .48298646 .34436036 .47999574 .39837647 .44699098 .44140626 .37199403 .44140626 .2829895 .44140626 .23599243 .3783722 .21798706 .35336305 .21499634 .41038514 .17399597 .44140626 .12998963 .44140626 .100997928 .44140626 .07798767 .42738343 .05899048 .38937379 .040985109 .35336305 .026992798 .29234315 .026992798 .28834535 .026992798 .28433229 .0309906 .2793274 .037994386 .2793274 .04598999 .2793274 .04699707 .28033448 .052993776 .30334474 .067993167 .36236573 .08699036 .42138673 .1269989 .42138673 .1499939 .42138673 .1579895 .40538026 .1579895 .3753662 .1579895 .35336305 .147995 .3143463 .14099121 .28334046L.11299133 .17529297 .09298706 .09326172C.085998538 .06726074 .07499695 .020233155 .07499695 .01524353 .07499695 .0012359619 .085998538-.009765625 .100997928-.009765625 .11299133-.009765625 .1269989-.003768921 .1349945 .011230469 .13699341 .016235352 .1459961 .051254274 .15098572 .071258548L.17298889 .1612854 .20599365 .29333497C.20799256 .29934693 .23298645 .34936524 .269989 .38137818 .29599 .40538026 .32998658 .42138673 .36898805 .42138673 .40899659 .42138673 .4229889 .39137269 .4229889 .35136415 .4229889 .34535218 .4229889 .3253479 .41099549 .27833558 .397995 .22631836 .397995 .22331238 .38598634 .17529297L.35699464 .060256959C.35299684 .04524231 .34700013 .019241333 .34700013 .01524353 .34700013 .0012359619 .35798646-.009765625 .37298585-.009765625 .40299989-.009765625 .4079895 .01322937 .4169922 .04925537L.47698976 .28834535C.47898866 .29634095 .5309906 .42138673 .6409912 .42138673 .68099978 .42138673 .69499209 .39137269 .69499209 .35136415 .69499209 .29533387 .6559906 .18629456 .6339874 .12628174 .625 .102264408 .6199951 .089263919 .6199951 .071258548 .6199951 .026245118 .651001-.009765625 .69898989-.009765625 .7919922-.009765625 .82699587 .13728333 .82699587 .14328003Z" />
<path id="font_4_62" d="M.42599488 .3812256C.42599488 .41325379 .394989 .44140626 .34498597 .44140626 .30499269 .44140626 .25898744 .42330934 .21699524 .36221314 .20999146 .41526795 .16999817 .44140626 .12998963 .44140626 .09098816 .44140626 .070999149 .41123963 .05899048 .3892212 .041992189 .3532257 .026992798 .2932129 .026992798 .28822328 .026992798 .28422547 .0309906 .27922059 .037994386 .27922059 .04598999 .27922059 .04699707 .2802124 .052993776 .30322267 .067993167 .3632202 .08699036 .42129518 .1269989 .42129518 .15098572 .42129518 .1579895 .40422059 .1579895 .37521363 .1579895 .3532257 .147995 .31422425 .14099121 .28321839L.11299133 .17521668 .09298706 .0932312C.085998538 .067230228 .07499695 .020233155 .07499695 .0152282719 .07499695 .0012207031 .085998538-.009765625 .100997928-.009765625 .11199951-.009765625 .1309967-.0027770997 .13699341 .017227173 .13999939 .025222779 .1769867 .17622376 .18299866 .19921875 .18798828 .22122193 .19400025 .24221802 .19898987 .2642212L.20999146 .30722047C.21299744 .31622315 .23999024 .36521913 .2649994 .3872223 .2769928 .39822389 .30299378 .42129518 .34399415 .42129518 .3600006 .42129518 .37599183 .41827394 .3889923 .40922547 .35798646 .4032135 .34199525 .3812256 .34199525 .3592224 .34199525 .33522035 .36099244 .32722474 .375 .32722474 .40299989 .32722474 .42599488 .35121156 .42599488 .3812256Z" />
<path id="font_4_66" d="M.45700074 .3743744C.45700074 .4373932 .4249878 .44140626 .4169922 .44140626 .3929901 .44140626 .37098695 .41738893 .37098695 .39738465 .37098695 .38537599 .37799073 .3783722 .38198854 .3743744 .3919983 .3653717 .41799928 .33836366 .41799928 .28633119 .41799928 .24432373 .35798646 .010238647 .23799134 .010238647 .1769867 .010238647 .16499329 .06124878 .16499329 .0982666 .16499329 .14828491 .18798828 .2183075 .21499634 .29034425 .23098755 .33135987 .23498535 .34135438 .23498535 .36135865 .23498535 .40338136 .20498657 .44140626 .1559906 .44140626 .06399536 .44140626 .026992798 .29634095 .026992798 .28834535 .026992798 .28433229 .0309906 .2793274 .037994386 .2793274 .04699707 .2793274 .04798889 .28334046 .051986696 .29734803 .07598877 .38337709 .114990238 .42138673 .15299988 .42138673 .1619873 .42138673 .1789856 .42138673 .1789856 .38838197 .1789856 .36236573 .16799927 .33335877 .15299988 .29533387 .10499573 .16729737 .10499573 .13627625 .10499573 .11227417 .10499573 .090270999 .10798645 .04925537 .13899231 .021240235 .1749878-.009765625 .22499085-.009765625 .23399353-.009765625 .3999939-.009765625 .45700074 .3173523 .45700074 .3743744Z" />
<path id="font_5_39" d="M.46099855 .10417175C.46099855 .11315918 .45098878 .120147708 .44499208 .120147708 .43899537 .120147708 .43598939 .11715698 .43099977 .11116028 .35198976 .018234253 .23999024 .018234253 .22200012 .018234253 .16799927 .018234253 .125 .051208497 .125 .12715149 .125 .17111206 .14498902 .27703858 .19198609 .33903504 .23599243 .39518739 .28599549 .4133911 .32499696 .4133911 .33699037 .4133911 .3829956 .41238404 .40899659 .38304139 .36799623 .3780365 .35499574 .34703065 .35499574 .32702638 .35499574 .29803468 .3809967 .29003907 .3939972 .29003907 .39898683 .29003907 .44999696 .29403688 .44999696 .35502626 .44999696 .4163971 .38398744 .44140626 .32398988 .44140626 .18199158 .44140626 .04399109 .3030243 .04399109 .16311646 .04399109 .06819153 .10899353-.009765625 .21998596-.009765625 .37799073-.009765625 .46099855 .091171268 .46099855 .10417175Z" />
<path id="font_5_51" d="M.519989 .27734376C.519989 .37638856 .45599366 .44140626 .37599183 .44140626 .31599427 .44140626 .2679901 .40039063 .23899842 .3703766 .21798706 .44140626 .15098572 .44140626 .14099121 .44140626 .10499573 .44140626 .07998657 .418396 .06399536 .38739015 .040985109 .34236146 .02999878 .29135133 .02999878 .28834535 .02999878 .27934266 .036987306 .27534486 .04499817 .27534486 .057998659 .27534486 .05899048 .27934266 .06599426 .3053589 .07899475 .35636903 .09700012 .4133911 .13798523 .4133911 .16299439 .4133911 .16999817 .39038087 .16999817 .36637879 .16999817 .35636903 .1659851 .33236695 .1639862 .32435609L.051986696-.12104797C.04399109-.15312195 .041992189-.16113281 .0019989014-.16113281-.012008667-.16113281-.024002076-.16113281-.024002076-.18014527-.024002076-.18914795-.015014648-.19413758-.010009766-.19413758 0-.19413758 .0039978029-.19114685 .07798767-.19114685 .1499939-.19114685 .17098999-.19413758 .17799378-.19413758 .18199158-.19413758 .19699097-.19413758 .19699097-.17514038 .19699097-.16113281 .18299866-.16113281 .17098999-.16113281 .12298584-.16113281 .12298584-.15512085 .12298584-.1461029 .12298584-.13908386 .14099121-.06791687 .17098999 .049240114 .18399048 .026229859 .21499634-.009765625 .2689972-.009765625 .3919983-.009765625 .519989 .13227844 .519989 .27734376M.44198609 .3193512C.44198609 .28234864 .41999818 .17529297 .3899994 .11627197 .3639984 .0622406 .31599427 .018234253 .2689972 .018234253 .20098877 .018234253 .18499756 .0962677 .18499756 .103256229 .18499756 .103256229 .18699646 .11627197 .18798828 .119277957L.23599243 .3083496C.24099732 .32536317 .24099732 .32736207 .2559967 .34536744 .2939911 .39038087 .33699037 .4133911 .37298585 .4133911 .4229889 .4133911 .44198609 .36437989 .44198609 .3193512Z" />
<path id="font_7_22" d="M.8529968 .02003479C.8529968 .031036377 .8450012 .040039064 .83299258 .040039064 .82099917 .040039064 .81799319 .03303528 .81199648 .021026612L.3889923-.8549652 .21099854-.46296693C.20698548-.4549713 .20498657-.4489746 .19799805-.4489746 .19499207-.4489746 .19299317-.4489746 .18399048-.4569702L.084991458-.53196719C.07398987-.54096987 .07299805-.54196169 .07299805-.54597476 .07299805-.55296328 .07699585-.55696108 .08299255-.55696108 .085998538-.55696108 .08799744-.55696108 .09700012-.54896548L.14898682-.509964 .34700013-.94496157C.35299684-.9589691 .35499574-.95996096 .3659973-.95996096 .38198854-.95996096 .38398744-.95596316 .3909912-.94096377L.8470001 .003036499C.85198977 .014038086 .8529968 .015029907 .8529968 .02003479Z" />
</defs><use data-text="√" xlink:href="#font_7_22" transform="matrix(11.9552,0,0,-11.9552,298.53099,215.47296)" fill="black" />
<use data-text="=" xlink:href="#font_1_24" transform="matrix(11.9552,0,0,-11.9552,279.464,223.46497)" fill="black" />
<use data-text="m" xlink:href="#font_4_57" transform="matrix(11.9552,0,0,-11.9552,238.806,223.46497)" fill="black" />
<use data-text="v" xlink:href="#font_4_66" transform="matrix(11.9552,0,0,-11.9552,249.0516,223.46497)" fill="black" />
<use data-text="r" xlink:href="#font_4_62" transform="matrix(11.9552,0,0,-11.9552,259.465,223.46497)" fill="black" />
<use data-text="r" xlink:href="#font_4_62" transform="matrix(11.9552,0,0,-11.9552,308.494,223.46503)" fill="black" />
<use data-text="m" xlink:href="#font_4_57" transform="matrix(11.9552,0,0,-11.9552,317.93498,223.46503)" fill="black" />
<use data-text="γ" xlink:href="#font_4_3" transform="matrix(11.9552,0,0,-11.9552,328.18058,223.46503)" fill="black" />
<use data-text="p" xlink:href="#font_5_51" transform="matrix(7.9701,0,0,-7.9701,254.704,225.25897)" fill="black" />
<use data-text="p" xlink:href="#font_5_51" transform="matrix(7.9701,0,0,-7.9701,264.74,225.25897)" fill="black" />
<use data-text="c" xlink:href="#font_5_39" transform="matrix(7.9701,0,0,-7.9701,313.76899,225.25904)" fill="black" />
<path d="M308.4939880371094 215.2340087890625H334.89697265625" stroke="black" stroke-width="0.4779999852180481" fill="none" /></svg>
