<svg xmlns="http://www.w3.org/2000/svg" xmlns:xlink="http://www.w3.org/1999/xlink" version="1.1" width="458.01" height="149.22" viewBox="147.840 246.252 327.150 106.586" role="img" aria-label="Mathematical expression from source PDF page 253"><defs><path id="font_10_37" d="M.5329895 .14328003C.5329895 .14927674 .5289917 .15628052 .5169983 .15628052 .5049896 .15628052 .5029907 .15028382 .49699403 .12527466 .48298646 .070251468 .46398927 .018234253 .4249878 .018234253 .4019928 .018234253 .3929901 .037231447 .3929901 .06524658 .3929901 .08226013 .4019928 .11627197 .4079895 .14128113L.43299867 .24432373C.44299317 .28134156 .44400025 .28733827 .45298768 .32035829 .45799256 .3443756 .46899415 .38638307 .46899415 .39138795 .46899415 .4143982 .44999696 .4223938 .43699647 .4223938 .42199708 .4223938 .39698792 .4123993 .3919983 .38137818 .3829956 .39839173 .35398866 .44140626 .29299928 .44140626 .17399597 .44140626 .042999269 .3023529 .042999269 .15428162 .042999269 .050247194 .10998535-.009765625 .18699646-.009765625 .25099183-.009765625 .30599977 .041229249 .32398988 .06124878 .34199525-.0077667238 .4099884-.009765625 .42199708-.009765625 .46798707-.009765625 .4909973 .02822876 .49899293 .04524231 .5189972 .08125305 .5329895 .13928223 .5329895 .14328003M.32398988 .10826111C.27398683 .039230348 .22200012 .018234253 .18998719 .018234253 .14399719 .018234253 .12098694 .0602417 .12098694 .11227417 .12098694 .1592865 .147995 .2663269 .16999817 .3103485 .19898987 .37138368 .24798584 .4133911 .2939911 .4133911 .35899354 .4133911 .37799073 .34036256 .37799073 .32835389 .37799073 .32435609 .35299684 .22631836 .34700013 .20030213 .33399964 .1532898 .33399964 .1512909 .32398988 .10826111Z" />
<path id="font_10_39" d="M.46099855 .10417175C.46099855 .11315918 .45098878 .120147708 .44499208 .120147708 .43899537 .120147708 .43598939 .11715698 .43099977 .11116028 .35198976 .018234253 .23999024 .018234253 .22200012 .018234253 .16799927 .018234253 .125 .051208497 .125 .12715149 .125 .17111206 .14498902 .27703858 .19198609 .33903504 .23599243 .39518739 .28599549 .4133911 .32499696 .4133911 .33699037 .4133911 .3829956 .41238404 .40899659 .38304139 .36799623 .3780365 .35499574 .34703065 .35499574 .32702638 .35499574 .29803468 .3809967 .29003907 .3939972 .29003907 .39898683 .29003907 .44999696 .29403688 .44999696 .35502626 .44999696 .4163971 .38398744 .44140626 .32398988 .44140626 .18199158 .44140626 .04399109 .3030243 .04399109 .16311646 .04399109 .06819153 .10899353-.009765625 .21998596-.009765625 .37799073-.009765625 .46099855 .091171268 .46099855 .10417175Z" />
<path id="font_1_10" d="M.4059906 .1191864C.4059906 .12817383 .39898683 .12817383 .3959961 .12817383 .3869934 .12817383 .38598634 .1251831 .3829956 .1131897 .36099244 .04222107 .30699159 .01222229 .25299073 .01222229 .19198609 .01222229 .11099243 .065200809 .11099243 .21713257 .11099243 .3831482 .19599915 .4242859 .24598694 .4242859 .28399659 .4242859 .33898927 .40924073 .3619995 .3701172 .34999085 .3701172 .31298829 .3701172 .31298829 .32911683 .31298829 .30511476 .32998658 .28811646 .35398866 .28811646 .3769989 .28811646 .3959961 .30210877 .3959961 .33111573 .3959961 .39819337 .32598878 .44628907 .24499512 .44628907 .12799073 .44628907 .034988405 .34210206 .034988405 .21614075 .034988405 .0881958 .1309967-.009765625 .24398804-.009765625 .37599183-.009765625 .4059906 .110183719 .4059906 .1191864Z" />
<path id="font_1_24" d="M.70700076 .34220887C.70700076 .36120606 .6899872 .36120606 .6749878 .36120606H.085998538C.07199097 .36120606 .053985597 .36120606 .053985597 .34321595 .053985597 .32421876 .070999149 .32421876 .085998538 .32421876H.6749878C.68899539 .32421876 .70700076 .32421876 .70700076 .34220887M.70700076 .15579224C.70700076 .17480469 .6899872 .17480469 .6749878 .17480469H.085998538C.07199097 .17480469 .053985597 .17480469 .053985597 .15679932 .053985597 .13780213 .070999149 .13780213 .085998538 .13780213H.6749878C.68899539 .13780213 .70700076 .13780213 .70700076 .15579224Z" />
<path id="font_1_52" d="M.45899964 .21424866C.45899964 .34326173 .36099244 .44628907 .24499512 .44628907 .125 .44628907 .02999878 .340271 .02999878 .21424866 .02999878 .086242679 .12998963-.009765625 .24398804-.009765625 .3619995-.009765625 .45899964 .08824158 .45899964 .21424866M.3829956 .22325135C.3829956 .18824768 .3829956 .12623596 .35699464 .07923889 .32899476 .031234742 .2829895 .01222229 .24499512 .01222229 .20799256 .01222229 .16299439 .02822876 .13398743 .07723999 .10699463 .12223816 .10598755 .1812439 .10598755 .22325135 .10598755 .261261 .10598755 .32226563 .13699341 .3672638 .16499329 .41027833 .20899964 .42626954 .24398804 .42626954 .2829895 .42626954 .32499696 .40827943 .35198976 .3692627 .3829956 .32325746 .3829956 .2602539 .3829956 .22325135Z" />
<path id="font_1_53" d="M.4099884 0V.0289917H.3789978C.29100038 .0289917 .28799439 .041000368 .28799439 .07701111V.6411133C.28799439 .664032 .28799439 .66503909 .2679901 .66503909 .24398804 .63812258 .19400025 .6012573 .09098816 .6012573V.5722656C.11399841 .5722656 .1639862 .5722656 .21899414 .59825137V.07701111C.21899414 .041000368 .21598816 .0289917 .12799073 .0289917H.09700012V0C.12399292 .0019989014 .22099304 .0019989014 .2539978 .0019989014 .2869873 .0019989014 .3829956 .0019989014 .4099884 0Z" />
<path id="font_1_56" d="M.32499696-.24298096C.32499696-.23999024 .32499696-.23799134 .30799867-.22097779 .20799256-.11999512 .1519928 .045013429 .1519928 .24900818 .1519928 .44299317 .19898987 .60998538 .31498719 .72798159 .32499696 .73698428 .32499696 .73898318 .32499696 .74198916 .32499696 .74798586 .31999208 .75 .31599427 .75 .30299378 .75 .22099304 .6779938 .17199707 .5799866 .12098694 .47898866 .09799194 .37199403 .09799194 .24900818 .09799194 .16000366 .11199951 .041000368 .1639862-.06599426 .22299195-.18598938 .30499269-.25097657 .31599427-.25097657 .31999208-.25097657 .32499696-.24897766 .32499696-.24298096Z" />
<path id="font_1_57" d="M.28199769 .24900818C.28199769 .32499696 .27198792 .44898988 .21598816 .5649872 .15699768 .6849823 .07499695 .75 .06399536 .75 .05999756 .75 .054992677 .74798586 .054992677 .74198916 .054992677 .73898318 .054992677 .73698428 .07199097 .71998599 .17199707 .61898806 .22799683 .45399476 .22799683 .25 .22799683 .055999757 .18099976-.11099243 .06498718-.22898865 .054992677-.23799134 .054992677-.23999024 .054992677-.24298096 .054992677-.24897766 .05999756-.25097657 .06399536-.25097657 .07699585-.25097657 .15899658-.1789856 .20799256-.08099365 .25898744 .021011353 .28199769 .1289978 .28199769 .24900818Z" />
<path id="font_1_60" d="M.70700076 .24856568C.70700076 .26757813 .6899872 .26757813 .6749878 .26757813H.39898683V.5440979C.39898683 .558136 .39898683 .5761719 .3809967 .5761719 .3619995 .5761719 .3619995 .5591278 .3619995 .5440979V.26757813H.085998538C.07199097 .26757813 .053985597 .26757813 .053985597 .24957276 .053985597 .23057556 .070999149 .23057556 .085998538 .23057556H.3619995V-.045181276C.3619995-.059173585 .3619995-.07714844 .37998963-.07714844 .39898683-.07714844 .39898683-.060165407 .39898683-.045181276V.23057556H.6749878C.68899539 .23057556 .70700076 .23057556 .70700076 .24856568Z" />
<path id="font_1_69" d="M.35198976 .12739563C.35198976 .181427 .31900025 .21340943 .30999757 .22239685 .27398683 .25338746 .24699402 .25938417 .18099976 .27137757 .15098572 .27737428 .07798767 .29136659 .07798767 .35131837 .07798767 .38230897 .09899902 .4282837 .18899536 .4282837 .2979889 .4282837 .3039856 .33532716 .30599977 .3043518 .30699159 .2963562 .31399537 .2963562 .31698609 .2963562 .32798768 .2963562 .32798768 .30136109 .32798768 .3193512V.4232788C.32798768 .44128419 .32798768 .44628907 .31799317 .44628907 .30999757 .44628907 .29100038 .4242859 .28399659 .4152832 .25299073 .4402771 .22200012 .44628907 .18998719 .44628907 .068984989 .44628907 .032989503 .38031007 .032989503 .32533265 .032989503 .3143463 .032989503 .27937318 .070999149 .24438477 .102996829 .21640015 .13699341 .20941162 .18299866 .20040894 .23799134 .1894226 .25099183 .18641663 .27598573 .16642761 .2939911 .15142823 .30699159 .12940979 .30699159 .101364139 .30699159 .05831909 .28199769 .010253906 .19400025 .010253906 .12799073 .010253906 .07998657 .048294069 .057998659 .1484375 .053985597 .16642761 .052993776 .16842652 .052993776 .16842652 .050994874 .17242432 .04699707 .17242432 .04399109 .17242432 .032989503 .17242432 .032989503 .16743469 .032989503 .14942932V.013259888C.032989503-.004760742 .032989503-.009765625 .042999269-.009765625 .04798889-.009765625 .04899597-.008773804 .06599426 .012252808 .070999149 .019256592 .070999149 .021270752 .085998538 .03729248 .12399292-.009765625 .17799378-.009765625 .19499207-.009765625 .2999878-.009765625 .35198976 .048294069 .35198976 .12739563Z" />
<path id="font_5_10" d="M.58898928 0V.042999269C.5269928 .042999269 .519989 .042999269 .519989 .08201599V.69433596L.34700013 .6855469V.64253237C.40899659 .64253237 .41600038 .64253237 .41600038 .6036682V.40219117C.3939972 .42118836 .34999085 .4501953 .2809906 .4501953 .13899231 .4501953 .037994386 .36218263 .037994386 .22215271 .037994386 .07914734 .13699341-.005859375 .269989-.005859375 .32499696-.005859375 .37199403 .013137817 .41099549 .046142579V-.005859375L.58898928 0M.41099549 .100997928C.36898805 .040130617 .31799317 .027130127 .28199769 .027130127 .1579895 .027130127 .1579895 .15414429 .1579895 .22015381 .1579895 .26716615 .1579895 .3171692 .17999268 .35517884 .21099854 .4111786 .269989 .41719056 .29299928 .41719056 .33399964 .41719056 .37799073 .39918519 .41099549 .35517884V.100997928Z" />
<path id="font_5_12" d="M.48098756 .11706543C.48098756 .13206482 .46598817 .13206482 .45999146 .13206482 .44400025 .13206482 .44299317 .12905884 .43699647 .11607361 .41099549 .051116945 .34498597 .030136109 .29699708 .030136109 .1519928 .030136109 .15098572 .16503906 .15098572 .22099304H.45199586C.47499085 .22099304 .48098756 .22099304 .48098756 .24598694 .48098756 .27601625 .47399903 .35105897 .42799378 .3981018 .38598634 .4401245 .32998658 .453125 .27198792 .453125 .115997318 .453125 .0309906 .35105897 .0309906 .22499085 .0309906 .08509827 .13398743-.005859375 .2849884-.005859375 .43598939-.005859375 .48098756 .1000824 .48098756 .11706543M.3889923 .25H.15098572C.15299988 .29101563 .1539917 .3300476 .1749878 .3660736 .19400025 .3981018 .22898865 .42012025 .27198792 .42012025 .3789978 .42012025 .3880005 .30003358 .3889923 .25Z" />
<path id="font_5_2" d="M.54100039 .022140503C.54100039 .043136598 .5319977 .043136598 .5179901 .043136598 .45498658 .044128419 .45498658 .060134889 .45498658 .08312988V.29911805C.45498658 .39111329 .38198854 .453125 .24099732 .453125 .18499756 .453125 .066986087 .44812013 .066986087 .36412049 .066986087 .32211305 .09899902 .30412293 .12599182 .30412293 .1559906 .30412293 .18499756 .32511903 .18499756 .3631134 .18499756 .3821106 .17799378 .40011598 .16099549 .41111756 .19400025 .42012025 .21798706 .42012025 .23699951 .42012025 .30499269 .42012025 .34599305 .3821106 .34599305 .30012513V.26011659C.18798828 .26011659 .0289917 .21612549 .0289917 .10513306 .0289917 .014129639 .14498902-.005859375 .21398926-.005859375 .29100038-.005859375 .33999635 .036132814 .3600006 .0801239 .3600006 .042999269 .3600006 0 .46099855 0H.5119934C.5329895 0 .54100039 0 .54100039 .021987915V.022140503M.34599305 .13899231C.34599305 .04499817 .2619934 .026992798 .22999573 .026992798 .18099976 .026992798 .13999939 .05999756 .13999939 .10598755 .13999939 .19699097 .24798584 .22799683 .34599305 .23298645V.13899231Z" />
<path id="font_5_27" d="M.83299258 0V.042999269H.80599978C.7519989 .042999269 .7480011 .04798889 .73799136 .0619812L.46899415 .42170716 .70700076 .6235504C.7200012 .63453677 .72898867 .64253237 .81799319 .64253237V.6855469L.71099856 .6835327C.68099978 .6835327 .6029968 .6835327 .5779877 .6855469V.64253237C.59999087 .64253237 .6239929 .6415405 .6499939 .631546V.6305542L.27598573 .31178285V.64253237H.38198854V.6855469C.35299684 .6835327 .24598694 .6835327 .20999146 .6835327 .17399597 .6835327 .066986087 .6835327 .037994386 .6855469V.64253237H.14399719V.042999269H.037994386V0C.066986087 .0019989014 .17399597 .0019989014 .20999146 .0019989014 .24598694 .0019989014 .35299684 .0019989014 .38198854 0V.042999269H.27598573V.25683595L.3789978 .34475709 .58799746 .065979007C.58999636 .06297302 .59399417 .0579834 .59399417 .053985597 .59399417 .042999269 .54499819 .042999269 .522995 .042999269V0C.5549927 .0019989014 .647995 .0019989014 .6859894 .0019989014 .71598818 .0019989014 .80999758 .0019989014 .83299258 0Z" />
<path id="font_5_29" d="M.6279907 .26982118H.58599856C.57899478 .2008667 .5629883 .042999269 .3829956 .042999269H.27598573V.64253237H.40899659V.6855469L.21798706 .6835327C.18099976 .6835327 .066986087 .6835327 .037994386 .6855469V.64253237H.14399719V.042999269H.037994386V0H.598999L.6279907 .26982118Z" />
<path id="font_5_30" d="M.28599549 0V.042999269H.21699524V.69433596L.04399109 .6855469V.64253237C.10598755 .64253237 .11299133 .64253237 .11299133 .6035614V.042999269H.04399109V0C.066986087 .0019989014 .13798523 .0019989014 .16499329 .0019989014 .19198609 .0019989014 .2630005 .0019989014 .28599549 0Z" />
<path id="font_5_40" d="M.58599856 .22319031C.58599856 .3611908 .49299623 .4501953 .35798646 .4501953 .29899598 .4501953 .24798584 .43019105 .20799256 .39819337V.4501953L.034988405 .4423828V.3993683C.09700012 .3993683 .10398865 .3993683 .10398865 .36035157V-.15039063H.034988405V-.19340515C.057998659-.19139099 .12998963-.19139099 .1579895-.19139099 .18598938-.19139099 .25898744-.19139099 .28199769-.19340515V-.15039063H.21299744V.041137697C.23799134 .019134522 .28199769-.005859375 .34199525-.005859375 .47898866-.005859375 .58599856 .0771637 .58599856 .2232666V.22319031M.46598817 .2232666C.46598817 .07817078 .3939972 .027130127 .32998658 .027130127 .2869873 .027130127 .24398804 .04914856 .21299744 .09617615V.3503418C.25 .39819337 .30299378 .41418458 .34199525 .41418458 .40699769 .41418458 .46598817 .3551941 .46598817 .22319031V.2232666Z" />
<path id="font_5_46" d="M.24398804 .57333377C.24398804 .639328 .21099854 .69433596 .15499878 .69433596 .11099243 .69433596 .083999637 .6613312 .083999637 .6223297 .083999637 .5863342 .10899353 .5503235 .1559906 .5503235 .18499756 .5503235 .20298767 .5653229 .21099854 .57333377 .20899964 .49536134 .17599488 .4333954 .11999512 .38841249 .11099243 .38041688 .10998535 .37942506 .10998535 .37542726 .10998535 .36642457 .12199402 .3564453 .12799073 .3564453 .14199829 .3564453 .24398804 .4403839 .24398804 .57333377Z" />
<path id="font_5_48" d="M.4269867 .3711853C.4269867 .42218019 .375 .4501953 .32699586 .4501953 .24798584 .4501953 .21398926 .38119508 .19999695 .33918763H.19898987V.4501953L.034988405 .4423828V.3993683C.09700012 .3993683 .10398865 .3993683 .10398865 .3603363V.042999269H.034988405V0C.057998659 .0019989014 .1329956 .0019989014 .16099549 .0019989014 .18998719 .0019989014 .2709961 .0019989014 .29499818 0V.042999269H.20799256V.22518921C.20799256 .25819398 .21499634 .41719056 .33198548 .41719056 .31799317 .40618897 .31098939 .38919068 .31098939 .3711853 .31098939 .33018495 .34399415 .31318666 .36898805 .31318666 .3939972 .31318666 .4269867 .33018495 .4269867 .3711853Z" />
<path id="font_5_50" d="M.40499879 .13912964C.40499879 .18711853 .3789978 .22012329 .35899354 .23812866 .31799317 .27212525 .28399659 .27812196 .22999573 .28811646 .1659851 .29911805 .10598755 .31011964 .10598755 .35812379 .10598755 .42311097 .19499207 .42311097 .21598816 .42311097 .32699586 .42311097 .33299256 .3531189 .33499146 .328125 .33599855 .3151245 .34399415 .3151245 .35598756 .3151245 .3769989 .3151245 .3769989 .31811524 .3769989 .34111024V.42712403C.3769989 .44612123 .3769989 .453125 .3619995 .453125 .35598756 .453125 .35398866 .453125 .33898927 .4441223 .33499146 .44111634 .32398988 .43411256 .31900025 .43112184 .29100038 .44711305 .2539978 .453125 .21798706 .453125 .18798828 .453125 .037994386 .453125 .037994386 .32312013 .037994386 .21812439 .1619873 .19612122 .19299317 .19113159 .21998596 .18612671 .25299073 .18013 .25698854 .18013 .29699708 .17112732 .33699037 .14613343 .33699037 .10412598 .33699037 .027130127 .24598694 .027130127 .22499085 .027130127 .17399597 .027130127 .11099243 .043136598 .08299255 .14012146 .07699585 .16012573 .07598877 .16113281 .05899048 .16113281 .037994386 .16113281 .037994386 .15812683 .037994386 .13513184V.020126343C.037994386 .0011291504 .037994386-.005859375 .052993776-.005859375 .05999756-.005859375 .06199646-.005859375 .08198547 .010131836L.10798645 .029129029C.15299988-.005859375 .20698548-.005859375 .22499085-.005859375 .27999879-.005859375 .40499879 .006134033 .40499879 .13912964Z" />
<path id="font_5_55" d="M.5139923 .17938233C.5139923 .22834778 .4889984 .32321168 .33399964 .35020448 .42199708 .37719728 .48298646 .43919374 .48298646 .5181885 .48298646 .5932007 .41099549 .65625 .27198792 .65625 .1599884 .65625 .07798767 .59721377 .07798767 .5161896 .07798767 .46618653 .116989139 .4501953 .14299011 .4501953 .17199707 .4501953 .20698548 .4691925 .20698548 .5151825 .20698548 .53819277 .19699097 .57218936 .1499939 .5791931 .19198609 .62023928 .2599945 .62023928 .2659912 .62023928 .35499574 .62023928 .35499574 .55119326 .35499574 .52119448 .35499574 .49118043 .35099793 .44519044 .31900025 .40419007 .29299928 .37020875 .2669983 .36820985 .22898865 .36621095 .21699524 .36520387 .19699097 .36419679 .19299317 .36219789 .18699646 .35920716 .18699646 .35220338 .18699646 .34820558 .18699646 .33120729 .19299317 .33120729 .21299744 .33120729H.26098634C.37298585 .33120729 .37298585 .2273407 .37298585 .17938233 .37298585 .1343689 .37298585 .028274537 .2649994 .028274537 .24398804 .028274537 .17799378 .031280519 .12998963 .06536865 .17298889 .07437134 .18798828 .1053772 .18798828 .13537598 .18798828 .17637635 .15899658 .20536804 .117996219 .20536804 .07598877 .20527649 .04699707 .17626953 .04699707 .13427735 .04699707 .042266847 .14698792-.01171875 .269989-.01171875 .43499757-.01171875 .5139923 .07926941 .5139923 .17927552V.17938233Z" />
<path id="font_5_62" d="M.7879944 .4013214V.44433595C.7589874 .44232179 .74598696 .44232179 .70999148 .44232179 .6689911 .44232179 .6559906 .44232179 .6199951 .44433595V.4013214C.6289978 .4013214 .6779938 .4013214 .6779938 .38832093 .6779938 .38832093 .6779938 .38632203 .673996 .37631227L.56900027 .11618042 .45399476 .4013214H.5109863V.44433595C.4869995 .44232179 .42799378 .44232179 .40098573 .44232179L.2979889 .44433595V.4013214H.35699464C.3600006 .3933258 .36499024 .38031007 .36898805 .37130738 .37199403 .36531068 .38198854 .34129334 .38198854 .33628846L.37799073 .3242798 .3019867 .13517761 .19400025 .4013214H.25099183V.44433595C.22799683 .44232179 .1599884 .44232179 .1329956 .44232179 .100997928 .44232179 .052993776 .44232179 .022994996 .44433595V.4013214H.08198547L.23498535 .020126343C.24198914 .002105713 .24598694-.0048828127 .2679901-.0048828127 .2789917-.0048828127 .29100038-.0048828127 .29899598 .01512146L.40499879 .28025819 .5109863 .017120362C.519989-.0048828127 .5309906-.0048828127 .54299929-.0048828127 .5649872-.0048828127 .56799319 .0011138916 .57499697 .019119263L.7200012 .37731935C.72698977 .39431764 .7299957 .4013214 .7879944 .4013214Z" />
<path id="font_5_7" d="M.22799683 .3723297C.22799683 .41333009 .19499207 .44433595 .1559906 .44433595 .116989139 .44433595 .083999637 .41333009 .083999637 .3723297 .083999637 .33132936 .116989139 .3003235 .1559906 .3003235 .19499207 .3003235 .22799683 .33132936 .22799683 .3723297M.22799683 .07199097C.22799683 .11299133 .19499207 .14399719 .1559906 .14399719 .116989139 .14399719 .083999637 .11299133 .083999637 .07199097 .083999637 .0309906 .116989139 0 .1559906 0 .19499207 0 .22799683 .0309906 .22799683 .07199097Z" />
<path id="font_6_28" d="M.70599368 .26049806C.70599368 .2705078 .69599917 .2705078 .69299319 .2705078 .6759949 .2705078 .6569977 .26849366 .6389923 .26849366H.58499148L.45799256 .2705078C.44898988 .2705078 .43699647 .2705078 .43699647 .25250245 .43699647 .24249268 .44499208 .24150086 .44499208 .24150086H.46998597C.548996 .24150086 .548996 .23350525 .548996 .21850586 .548996 .21850586 .5299988 .116500858 .5109863 .086502078 .47299195 .03050232 .3939972 .007507324 .33499146 .007507324 .2579956 .007507324 .1329956 .04750061 .1329956 .22050476 .1329956 .28752137 .15699768 .44075013 .2539978 .5539093 .31698609 .62602236 .4099884 .6750946 .49798585 .6750946 .6159973 .6750946 .6579895 .5739441 .6579895 .48181153 .6579895 .4657898 .6539917 .4437561 .6539917 .42973329 .6539917 .42071534 .6639862 .42071534 .6669922 .42071534 .6779938 .42071534 .67900088 .4217224 .68299868 .43974305L.74598696 .6950989C.74598696 .70410159 .7369995 .70410159 .7369995 .70410159 .7369995 .70410159 .73098757 .70410159 .72299197 .6940918L.6539917 .61099246C.6489868 .6190033 .6289978 .65405276 .58999636 .6770935 .5469971 .70410159 .5039978 .70410159 .4889984 .70410159 .2749939 .70410159 .049987794 .48580934 .049987794 .24949646 .049987794 .084503177 .1639862-.021484375 .31399537-.021484375 .38598634-.021484375 .47698976 .0025024415 .5269928 .06550598 .5379944 .027511597 .55999758 .00050354006 .5669861 .00050354006 .57199099 .00050354006 .57398989 .0035095216 .57398989 .0035095216 .57499697 .005508423 .58299258 .040512086 .58799746 .058502199L.60398867 .12249756 .6230011 .19950867C.6329956 .23750305 .6349945 .24050904 .6899872 .24150086 .69400027 .24150086 .70599368 .24150086 .70599368 .26049806Z" />
<path id="font_6_3" d="M.5319977 .42266847C.5319977 .42266847 .5309906 .43066407 .5219879 .43066407 .5219879 .43066407 .5149994 .43066407 .5130005 .426651 .5109863 .42466737 .47599793 .3567047 .44599916 .28875733 .43099977 .25479127 .41099549 .20982361 .37799073 .12188721 .37599183 .1708374 .37399293 .24778748 .33599855 .33772279 .31599427 .38768006 .28199769 .44065858 .20899964 .44065858 .085998538 .44065858 .018997193 .2837677 .018997193 .25778199 .018997193 .24879456 .025985718 .24879456 .0289917 .24879456 .037994386 .24879456 .037994386 .25079347 .042999269 .2637787 .06399536 .32572938 .12799073 .37469483 .19699097 .37469483 .33599855 .37469483 .35598756 .21980286 .35598756 .12088013 .35598756 .057922365 .34899903 .03694153 .34298707 .016952515 .32398988-.04499817 .29100038-.1689148 .29100038-.19688416 .29100038-.20487976 .2939911-.21386719 .3019867-.21386719 .31698609-.21386719 .32598878-.18089295 .33699037-.14093018 .36099244-.052993776 .36698915-.009017944 .37199403 .030944825 .375 .05493164 .43199159 .21980286 .5109863 .37669374 .5179901 .39268495 .5319977 .41966249 .5319977 .42266847Z" />
<path id="font_6_31" d="M.6309967 .24586487C.6309967 .25186158 .6259918 .25585938 .62098696 .25585938 .62098696 .25585938 .61499026 .25585938 .61299136 .25186158 .61099246 .2508545 .61099246 .24885559 .6029968 .22987366 .57099917 .141922 .526001 .0289917 .35699464 .0289917H.26098634C.24699402 .0289917 .24499512 .0289917 .23899842 .02999878 .22799683 .0309906 .22698975 .032989503 .22698975 .040985109 .22698975 .047973634 .22898865 .053970338 .23098755 .06297302L.36698915 .6056366C.37599183 .6436157 .3789978 .6536102 .46699525 .6536102 .49398805 .6536102 .5009918 .6536102 .5009918 .6726074 .5009918 .6826172 .48999024 .6826172 .48599244 .6826172 .46598817 .6826172 .44299317 .680603 .4229889 .680603H.2889862C.269989 .680603 .24798584 .6826172 .22898865 .6826172 .22099304 .6826172 .20999146 .6826172 .20999146 .66360476 .20999146 .6536102 .21899414 .6536102 .23399353 .6536102 .29499818 .6536102 .29499818 .6456146 .29499818 .6346283 .29499818 .6346283 .29499818 .6266327 .29100038 .6116333L.1559906 .07395935C.14698792 .038986207 .14498902 .0289917 .07499695 .0289917 .055999757 .0289917 .04598999 .0289917 .04598999 .010986328 .04598999 0 .051986696 0 .07199097 0H.519989C.5419922 0 .54299929 .0009918213 .5499878 .018997193L.6269989 .23187256C.6289978 .23686219 .6309967 .24285889 .6309967 .24586487Z" />
<path id="font_6_32" d="M1.0179901 .6726074C1.0179901 .6826172 1.0110016 .6826172 .99198916 .6826172H.871994C.8470001 .6826172 .84599307 .6816101 .83499148 .66560366L.46998597 .08895874 .394989 .660614C.3919983 .6826172 .3909912 .6826172 .36499024 .6826172H.24099732C.22200012 .6826172 .21299744 .6826172 .21299744 .66360476 .21299744 .6536102 .22200012 .6536102 .23699951 .6536102 .2979889 .6536102 .2979889 .6456146 .2979889 .6346283 .2979889 .6346283 .2979889 .6266327 .2939911 .6116333L.1659851 .10194397C.1539917 .053970338 .1309967 .03199768 .06399536 .0289917 .06098938 .0289917 .04899597 .027999878 .04899597 .010986328 .04899597 0 .057998659 0 .06199646 0L.15299988 .0019989014H.20098877C.21499634 .0019989014 .23199463 0 .24598694 0 .25299073 0 .2639923 0 .2639923 .018997193 .2639923 .027999878 .2539978 .0289917 .25 .0289917 .21699524 .02999878 .18499756 .035995485 .18499756 .07196045 .18499756 .081954959 .18499756 .082962039 .18899536 .096954349L.32699586 .6476135H.32798768L.41099549 .026992798C.4139862 .0029907227 .4149933 0 .42399598 0 .43499757 0 .43998719 .0079956059 .44499208 .016998291L.8470001 .6526184H.84799197L.7029877 .07395935C.69400027 .038986207 .69200137 .0289917 .621994 .0289917 .6029968 .0289917 .59298709 .0289917 .59298709 .010986328 .59298709 0 .60198977 0 .60798647 0 .625 0 .644989 .0019989014 .6619873 .0019989014H.7799988C.7969971 .0019989014 .81799319 0 .83499148 0 .84298709 0 .85398867 0 .85398867 .018997193 .85398867 .0289917 .8450012 .0289917 .8299866 .0289917 .7689972 .0289917 .7689972 .036987306 .7689972 .04698181 .7689972 .04698181 .7689972 .054977418 .7709961 .06297302L.9079895 .6096344C.9169922 .6436157 .9189911 .6536102 .98999026 .6536102 1.0089874 .6536102 1.0179901 .6536102 1.0179901 .6726074Z" />
<path id="font_6_45" d="M.30099488 .119277957C.29599 .102264408 .29599 .1002655 .28199769 .08126831 .2599945 .053253175 .21598816 .010238647 .16899109 .010238647 .12799073 .010238647 .10499573 .04724121 .10499573 .106277469 .10499573 .1612854 .13598633 .2733307 .15499878 .3153534 .18899536 .38537599 .23599243 .42138673 .2749939 .42138673 .34098817 .42138673 .35398866 .33935548 .35398866 .33135987 .35398866 .33135987 .35099793 .3173523 .34999085 .3153534L.30099488 .119277957M.4850006 .14328003C.4850006 .14828491 .48098756 .15228272 .47499085 .15228272 .46598817 .15228272 .46499635 .14729309 .46099855 .13227844 .44599916 .07325745 .4269867 .010238647 .38598634 .010238647 .35699464 .010238647 .35499574 .036239625 .35499574 .056243898 .35499574 .07925415 .35798646 .090270999 .36698915 .12927246L.3869934 .205307C.42399598 .35536195 .43299867 .39137269 .43299867 .39738465 .43299867 .41137696 .42199708 .4223938 .40699769 .4223938 .375 .4223938 .36698915 .38737489 .36499024 .3753662 .35398866 .40138246 .32699586 .44140626 .2749939 .44140626 .1619873 .44140626 .039993287 .29533387 .039993287 .14729309 .039993287 .04824829 .09799194-.009765625 .1659851-.009765625 .22099304-.009765625 .2679901 .0332489 .29599 .06625366 .30599977 .007232666 .35299684-.009765625 .3829956-.009765625 .41299439-.009765625 .43699647 .008239746 .45498658 .04425049 .47099305 .07826233 .4850006 .13928223 .4850006 .14328003Z" />
<path id="font_6_5" d="M.34700013 .040145875C.34700013 .046142579 .34399415 .052124025 .33799745 .052124025 .33499146 .052124025 .33299256 .051132204 .32798768 .0471344 .2899933 .02217102 .25299073 .010192871 .22299195 .010192871 .16999817 .010192871 .11399841 .045135499 .11399841 .14198303 .11399841 .1609497 .115997318 .18692017 .125 .22685242H.29100038C.30599977 .22685242 .32299806 .22685242 .32299806 .24285889 .32299806 .25585938 .31298829 .25585938 .29499818 .25585938H.1329956C.1579895 .34672547 .21699524 .4016571 .30599977 .4016571H.33499146C.35198976 .4016571 .36698915 .4016571 .36698915 .41766358 .36698915 .43066407 .35598756 .43066407 .33799745 .43066407H.3039856C.18099976 .43066407 .04598999 .3327484 .04598999 .17593384 .04598999 .06510925 .12098694-.009765625 .21998596-.009765625 .28399659-.009765625 .34700013 .030166626 .34700013 .040145875Z" />
<path id="font_6_57" d="M.82699587 .14328003C.82699587 .14828491 .82299807 .15228272 .81700137 .15228272 .80799868 .15228272 .8069916 .14929199 .8019867 .13227844 .7789917 .052246095 .74198916 .010238647 .70199587 .010238647 .69200137 .010238647 .6759949 .011230469 .6759949 .04324341 .6759949 .06925964 .6879883 .10127258 .69200137 .11227417 .70999148 .16029358 .7549896 .27833558 .7549896 .3363495 .7549896 .39637757 .7200012 .44140626 .6439972 .44140626 .57699587 .44140626 .522995 .40338136 .48298646 .34436036 .47999574 .39837647 .44699098 .44140626 .37199403 .44140626 .2829895 .44140626 .23599243 .3783722 .21798706 .35336305 .21499634 .41038514 .17399597 .44140626 .12998963 .44140626 .100997928 .44140626 .07798767 .42738343 .05899048 .38937379 .040985109 .35336305 .026992798 .29234315 .026992798 .28834535 .026992798 .28433229 .0309906 .2793274 .037994386 .2793274 .04598999 .2793274 .04699707 .28033448 .052993776 .30334474 .067993167 .36236573 .08699036 .42138673 .1269989 .42138673 .1499939 .42138673 .1579895 .40538026 .1579895 .3753662 .1579895 .35336305 .147995 .3143463 .14099121 .28334046L.11299133 .17529297 .09298706 .09326172C.085998538 .06726074 .07499695 .020233155 .07499695 .01524353 .07499695 .0012359619 .085998538-.009765625 .100997928-.009765625 .11299133-.009765625 .1269989-.003768921 .1349945 .011230469 .13699341 .016235352 .1459961 .051254274 .15098572 .071258548L.17298889 .1612854 .20599365 .29333497C.20799256 .29934693 .23298645 .34936524 .269989 .38137818 .29599 .40538026 .32998658 .42138673 .36898805 .42138673 .40899659 .42138673 .4229889 .39137269 .4229889 .35136415 .4229889 .34535218 .4229889 .3253479 .41099549 .27833558 .397995 .22631836 .397995 .22331238 .38598634 .17529297L.35699464 .060256959C.35299684 .04524231 .34700013 .019241333 .34700013 .01524353 .34700013 .0012359619 .35798646-.009765625 .37298585-.009765625 .40299989-.009765625 .4079895 .01322937 .4169922 .04925537L.47698976 .28834535C.47898866 .29634095 .5309906 .42138673 .6409912 .42138673 .68099978 .42138673 .69499209 .39137269 .69499209 .35136415 .69499209 .29533387 .6559906 .18629456 .6339874 .12628174 .625 .102264408 .6199951 .089263919 .6199951 .071258548 .6199951 .026245118 .651001-.009765625 .69898989-.009765625 .7919922-.009765625 .82699587 .13728333 .82699587 .14328003Z" />
<path id="font_6_6" d="M.44299317 .50305178C.44299317 .605072 .41099549 .70410159 .32899476 .70410159 .18899536 .70410159 .039993287 .41104127 .039993287 .19110108 .039993287 .1451416 .049987794-.009765625 .15499878-.009765625 .29100038-.009765625 .44299317 .276062 .44299317 .50305178M.35099793 .36203004H.13999939C.15499878 .42103578 .17599488 .50505068 .21598816 .57606509 .24899292 .6360779 .28399659 .6840973 .32798768 .6840973 .36099244 .6840973 .3829956 .65608218 .3829956 .5600586 .3829956 .5240631 .37998963 .4740448 .35099793 .36203004M.34399415 .33203126C.31900025 .23408509 .2979889 .17111206 .2619934 .1081543 .23298645 .05718994 .19799805 .01020813 .1559906 .01020813 .125 .01020813 .099990848 .034194948 .099990848 .1331482 .099990848 .19810486 .115997318 .2660675 .13198853 .33203126H.34399415Z" />
<path id="font_6_62" d="M.42599488 .3812256C.42599488 .41325379 .394989 .44140626 .34498597 .44140626 .30499269 .44140626 .25898744 .42330934 .21699524 .36221314 .20999146 .41526795 .16999817 .44140626 .12998963 .44140626 .09098816 .44140626 .070999149 .41123963 .05899048 .3892212 .041992189 .3532257 .026992798 .2932129 .026992798 .28822328 .026992798 .28422547 .0309906 .27922059 .037994386 .27922059 .04598999 .27922059 .04699707 .2802124 .052993776 .30322267 .067993167 .3632202 .08699036 .42129518 .1269989 .42129518 .15098572 .42129518 .1579895 .40422059 .1579895 .37521363 .1579895 .3532257 .147995 .31422425 .14099121 .28321839L.11299133 .17521668 .09298706 .0932312C.085998538 .067230228 .07499695 .020233155 .07499695 .0152282719 .07499695 .0012207031 .085998538-.009765625 .100997928-.009765625 .11199951-.009765625 .1309967-.0027770997 .13699341 .017227173 .13999939 .025222779 .1769867 .17622376 .18299866 .19921875 .18798828 .22122193 .19400025 .24221802 .19898987 .2642212L.20999146 .30722047C.21299744 .31622315 .23999024 .36521913 .2649994 .3872223 .2769928 .39822389 .30299378 .42129518 .34399415 .42129518 .3600006 .42129518 .37599183 .41827394 .3889923 .40922547 .35798646 .4032135 .34199525 .3812256 .34199525 .3592224 .34199525 .33522035 .36099244 .32722474 .375 .32722474 .40299989 .32722474 .42599488 .35121156 .42599488 .3812256Z" />
<path id="font_6_66" d="M.45700074 .3743744C.45700074 .4373932 .4249878 .44140626 .4169922 .44140626 .3929901 .44140626 .37098695 .41738893 .37098695 .39738465 .37098695 .38537599 .37799073 .3783722 .38198854 .3743744 .3919983 .3653717 .41799928 .33836366 .41799928 .28633119 .41799928 .24432373 .35798646 .010238647 .23799134 .010238647 .1769867 .010238647 .16499329 .06124878 .16499329 .0982666 .16499329 .14828491 .18798828 .2183075 .21499634 .29034425 .23098755 .33135987 .23498535 .34135438 .23498535 .36135865 .23498535 .40338136 .20498657 .44140626 .1559906 .44140626 .06399536 .44140626 .026992798 .29634095 .026992798 .28834535 .026992798 .28433229 .0309906 .2793274 .037994386 .2793274 .04699707 .2793274 .04798889 .28334046 .051986696 .29734803 .07598877 .38337709 .114990238 .42138673 .15299988 .42138673 .1619873 .42138673 .1789856 .42138673 .1789856 .38838197 .1789856 .36236573 .16799927 .33335877 .15299988 .29533387 .10499573 .16729737 .10499573 .13627625 .10499573 .11227417 .10499573 .090270999 .10798645 .04925537 .13899231 .021240235 .1749878-.009765625 .22499085-.009765625 .23399353-.009765625 .3999939-.009765625 .45700074 .3173523 .45700074 .3743744Z" />
<path id="font_7_36" d="M1.019989 .02003479C1.019989 .031036377 1.0119934 .040039064 1 .040039064 .98399356 .040039064 .98098757 .027038575 .9779968 .010040283L.46598817-2.7149659H.46499635L.24899292-1.4599609 .116989139-1.7199707C.11199951-1.7299652 .11099243-1.7329712 .11099243-1.7329712 .11099243-1.736969 .125-1.7489624 .125-1.7489624L.19299317-1.6169586 .42399598-2.959961C.45498658-2.959961 .46099855-2.959961 .46598817-2.9339753L1.019989 .02003479Z" />
<path id="font_8_1" d="M.69400027 .25045777C.69400027 .27046205 .6749878 .27046205 .6609955 .27046205H.115997318C.101989749 .27046205 .08299255 .27046205 .08299255 .25045777 .08299255 .23046875 .101989749 .23046875 .115997318 .23046875H.6609955C.6749878 .23046875 .69400027 .23046875 .69400027 .25045777Z" />
<path id="font_9_28" d="M.47698976 .17900086H.44599916C.44299317 .15899658 .43499757 .10899353 .4229889 .08999634 .4169922 .08198547 .34098817 .08198547 .32499696 .08198547H.14698792L.28199769 .20399475C.2979889 .2190094 .33999635 .2519989 .35598756 .26600648 .41799928 .3230133 .47698976 .37802125 .47698976 .46902467 .47698976 .58802798 .3769989 .66503909 .2519989 .66503909 .13198853 .6651764 .052993776 .574173 .052993776 .48516847 .052993776 .4361725 .09199524 .4291687 .10598755 .4291687 .1269989 .4291687 .1579895 .4441681 .1579895 .48217774 .1579895 .5341797 .10798645 .5341797 .09599304 .5341797 .125 .6070709 .19198609 .6320343 .24099732 .6320343 .33399964 .6320343 .38198854 .55314639 .38198854 .46917726 .38198854 .36517335 .30899049 .2891693 .19099427 .16816712L.06498718 .03817749C.052993776 .026992798 .052993776 .024993897 .052993776 0H.44799806L.47698976 .17900086Z" />
</defs><use data-text="=" xlink:href="#font_1_24" transform="matrix(11.9552,0,0,-11.9552,387.458,257.016)" fill="black" />
<use data-text="(" xlink:href="#font_1_56" transform="matrix(11.9552,0,0,-11.9552,412.67,257.016)" fill="black" />
<use data-text="1" xlink:href="#font_1_53" transform="matrix(11.9552,0,0,-11.9552,417.22496,257.016)" fill="black" />
<use data-text="+" xlink:href="#font_1_60" transform="matrix(11.9552,0,0,-11.9552,425.73707,257.016)" fill="black" />
<use data-text=")" xlink:href="#font_1_57" transform="matrix(11.9552,0,0,-11.9552,442.221,257.016)" fill="black" />
<use data-text="r" xlink:href="#font_6_62" transform="matrix(11.9552,0,0,-11.9552,367.224,257.016)" fill="black" />
<use data-text="a" xlink:href="#font_6_45" transform="matrix(11.9552,0,0,-11.9552,406.526,257.016)" fill="black" />
<use data-text="ϵ" xlink:href="#font_6_5" transform="matrix(11.9552,0,0,-11.9552,437.49403,257.016)" fill="black" />
<use data-text="a" xlink:href="#font_10_37" transform="matrix(7.9701,0,0,-7.9701,372.499,258.81)" fill="black" />
<use data-text="r" xlink:href="#font_6_62" transform="matrix(11.9552,0,0,-11.9552,415.596,269.138)" fill="black" />
<use data-text="c" xlink:href="#font_10_39" transform="matrix(7.9701,0,0,-7.9701,420.871,270.93104)" fill="black" />
<use data-text="2" xlink:href="#font_9_28" transform="matrix(7.9701,0,0,-7.9701,227.22702,271.38899)" fill="black" />
<use data-text="(" xlink:href="#font_1_56" transform="matrix(11.9552,0,0,-11.9552,197.48302,275.727)" fill="black" />
<use data-text="1" xlink:href="#font_1_53" transform="matrix(11.9552,0,0,-11.9552,202.03795,275.727)" fill="black" />
<use data-text=")" xlink:href="#font_1_57" transform="matrix(11.9552,0,0,-11.9552,231.95902,275.727)" fill="black" />
<use data-text="−" xlink:href="#font_8_1" transform="matrix(11.9552,0,0,-11.9552,210.54502,275.727)" fill="black" />
<use data-text="a" xlink:href="#font_6_45" transform="matrix(11.9552,0,0,-11.9552,191.33802,275.727)" fill="black" />
<use data-text="ϵ" xlink:href="#font_6_5" transform="matrix(11.9552,0,0,-11.9552,222.50002,275.727)" fill="black" />
<use data-text="=" xlink:href="#font_1_24" transform="matrix(11.9552,0,0,-11.9552,387.458,277.22499)" fill="black" />
<use data-text="r" xlink:href="#font_6_62" transform="matrix(11.9552,0,0,-11.9552,367.224,277.22499)" fill="black" />
<use data-text="a" xlink:href="#font_10_37" transform="matrix(7.9701,0,0,-7.9701,372.499,279.01899)" fill="black" />
<use data-text="=" xlink:href="#font_1_24" transform="matrix(11.9552,0,0,-11.9552,168.44301,283.815)" fill="black" />
<use data-text="r" xlink:href="#font_6_62" transform="matrix(11.9552,0,0,-11.9552,152.88,283.815)" fill="black" />
<use data-text="1" xlink:href="#font_1_53" transform="matrix(11.9552,0,0,-11.9552,407.721,285.426)" fill="black" />
<use data-text="−" xlink:href="#font_8_1" transform="matrix(11.9552,0,0,-11.9552,416.23103,285.426)" fill="black" />
<use data-text="ϵ" xlink:href="#font_6_5" transform="matrix(11.9552,0,0,-11.9552,428.186,285.426)" fill="black" />
<use data-text="1" xlink:href="#font_1_53" transform="matrix(11.9552,0,0,-11.9552,188.707,292.015)" fill="black" />
<use data-text="+" xlink:href="#font_1_60" transform="matrix(11.9552,0,0,-11.9552,197.2191,292.015)" fill="black" />
<use data-text="c" xlink:href="#font_1_10" transform="matrix(11.9552,0,0,-11.9552,215.69699,292.015)" fill="black" />
<use data-text="o" xlink:href="#font_1_52" transform="matrix(11.9552,0,0,-11.9552,220.8975,292.015)" fill="black" />
<use data-text="s" xlink:href="#font_1_69" transform="matrix(11.9552,0,0,-11.9552,226.75556,292.015)" fill="black" />
<use data-text="ϵ" xlink:href="#font_6_5" transform="matrix(11.9552,0,0,-11.9552,208.978,292.015)" fill="black" />
<use data-text="θ" xlink:href="#font_6_6" transform="matrix(11.9552,0,0,-11.9552,233.362,292.015)" fill="black" />
<use data-text="�" xlink:href="#font_7_36" transform="matrix(9.9626,0,0,-9.9626,406.526,291.20399)" fill="black" />
<use data-text="(" xlink:href="#font_1_56" transform="matrix(11.9552,0,0,-11.9552,439.491,302.234)" fill="black" />
<use data-text="1" xlink:href="#font_1_53" transform="matrix(11.9552,0,0,-11.9552,444.04594,302.234)" fill="black" />
<use data-text=")" xlink:href="#font_1_57" transform="matrix(11.9552,0,0,-11.9552,469.235,302.234)" fill="black" />
<use data-text="r" xlink:href="#font_6_62" transform="matrix(11.9552,0,0,-11.9552,209.204,302.068)" fill="black" />
<use data-text="−" xlink:href="#font_8_1" transform="matrix(11.9552,0,0,-11.9552,452.553,302.234)" fill="black" />
<use data-text="G" xlink:href="#font_6_28" transform="matrix(11.9552,0,0,-11.9552,417.684,302.234)" fill="black" />
<use data-text="M" xlink:href="#font_6_32" transform="matrix(11.9552,0,0,-11.9552,426.9134,302.234)" fill="black" />
<use data-text="ϵ" xlink:href="#font_6_5" transform="matrix(11.9552,0,0,-11.9552,464.508,302.234)" fill="black" />
<use data-text="c" xlink:href="#font_10_39" transform="matrix(7.9701,0,0,-7.9701,214.47899,303.862)" fill="black" />
<use data-text="=" xlink:href="#font_1_24" transform="matrix(11.9552,0,0,-11.9552,168.444,310.156)" fill="black" />
<use data-text="=" xlink:href="#font_1_24" transform="matrix(11.9552,0,0,-11.9552,387.458,310.322)" fill="black" />
<use data-text="r" xlink:href="#font_6_62" transform="matrix(11.9552,0,0,-11.9552,152.88,310.156)" fill="black" />
<use data-text="v" xlink:href="#font_6_66" transform="matrix(11.9552,0,0,-11.9552,366.84,310.322)" fill="black" />
<use data-text="a" xlink:href="#font_10_37" transform="matrix(7.9701,0,0,-7.9701,372.499,312.115)" fill="black" />
<use data-text="1" xlink:href="#font_1_53" transform="matrix(11.9552,0,0,-11.9552,188.707,318.357)" fill="black" />
<use data-text="+" xlink:href="#font_1_60" transform="matrix(11.9552,0,0,-11.9552,197.2191,318.357)" fill="black" />
<use data-text="c" xlink:href="#font_1_10" transform="matrix(11.9552,0,0,-11.9552,215.69699,318.357)" fill="black" />
<use data-text="o" xlink:href="#font_1_52" transform="matrix(11.9552,0,0,-11.9552,220.8975,318.357)" fill="black" />
<use data-text="s" xlink:href="#font_1_69" transform="matrix(11.9552,0,0,-11.9552,226.75556,318.357)" fill="black" />
<use data-text="ϵ" xlink:href="#font_6_5" transform="matrix(11.9552,0,0,-11.9552,208.978,318.357)" fill="black" />
<use data-text="θ" xlink:href="#font_6_6" transform="matrix(11.9552,0,0,-11.9552,233.362,318.357)" fill="black" />
<use data-text="r" xlink:href="#font_6_62" transform="matrix(11.9552,0,0,-11.9552,440.6,318.523)" fill="black" />
<use data-text="a" xlink:href="#font_10_37" transform="matrix(7.9701,0,0,-7.9701,445.875,320.316)" fill="black" />
<use data-text="2" xlink:href="#font_9_28" transform="matrix(7.9701,0,0,-7.9701,198.80301,328.39897)" fill="black" />
<use data-text="L" xlink:href="#font_6_31" transform="matrix(11.9552,0,0,-11.9552,190.839,332.73698)" fill="black" />
<use data-text="=" xlink:href="#font_1_24" transform="matrix(11.9552,0,0,-11.9552,168.444,340.82499)" fill="black" />
<use data-text="r" xlink:href="#font_6_62" transform="matrix(11.9552,0,0,-11.9552,149.04001,340.82499)" fill="black" />
<use data-text="K" xlink:href="#font_5_27" transform="matrix(11.9552,0,0,-11.9552,312.781,342.15803)" fill="black" />
<use data-text="e" xlink:href="#font_5_12" transform="matrix(11.9552,0,0,-11.9552,323.31355,342.15803)" fill="black" />
<use data-text="p" xlink:href="#font_5_40" transform="matrix(11.9552,0,0,-11.9552,329.44657,342.15803)" fill="black" />
<use data-text="l" xlink:href="#font_5_30" transform="matrix(11.9552,0,0,-11.9552,336.91859,342.15803)" fill="black" />
<use data-text="e" xlink:href="#font_5_12" transform="matrix(11.9552,0,0,-11.9552,340.66056,342.15803)" fill="black" />
<use data-text="r" xlink:href="#font_5_48" transform="matrix(11.9552,0,0,-11.9552,346.79359,342.15803)" fill="black" />
<use data-text="’" xlink:href="#font_5_46" transform="matrix(11.9552,0,0,-11.9552,352.29298,342.15803)" fill="black" />
<use data-text="s" xlink:href="#font_5_50" transform="matrix(11.9552,0,0,-11.9552,356.03495,342.15803)" fill="black" />
<use data-text="3" xlink:href="#font_5_55" transform="matrix(11.9552,0,0,-11.9552,365.82627,342.15803)" fill="black" />
<use data-text="r" xlink:href="#font_5_48" transform="matrix(11.9552,0,0,-11.9552,372.55705,342.15803)" fill="black" />
<use data-text="d" xlink:href="#font_5_10" transform="matrix(11.9552,0,0,-11.9552,378.05644,342.15803)" fill="black" />
<use data-text="L" xlink:href="#font_5_29" transform="matrix(11.9552,0,0,-11.9552,390.01167,342.15803)" fill="black" />
<use data-text="a" xlink:href="#font_5_2" transform="matrix(11.9552,0,0,-11.9552,398.09339,342.15803)" fill="black" />
<use data-text="w" xlink:href="#font_5_62" transform="matrix(11.9552,0,0,-11.9552,404.26228,342.15803)" fill="black" />
<use data-text=":" xlink:href="#font_5_7" transform="matrix(11.9552,0,0,-11.9552,413.98185,342.15803)" fill="black" />
<use data-text="c" xlink:href="#font_10_39" transform="matrix(7.9701,0,0,-7.9701,154.315,342.61799)" fill="black" />
<use data-text="m" xlink:href="#font_6_57" transform="matrix(11.9552,0,0,-11.9552,188.707,349.026)" fill="black" />
<use data-text="γ" xlink:href="#font_6_3" transform="matrix(11.9552,0,0,-11.9552,198.9526,349.026)" fill="black" />
<path d="M188.70700073242188 280.82598876953125H239.14300537109375" stroke="black" stroke-width="0.39800000190734863" fill="none" /><path d="M188.70700073242188 307.1669921875H239.14300537109375" stroke="black" stroke-width="0.39800000190734863" fill="none" /><path d="M188.70700073242188 337.83599853515625H205.66799926757812" stroke="black" stroke-width="0.39800000190734863" fill="none" /><path d="M407.72100830078125 274.23699951171875H432.9129943847656" stroke="black" stroke-width="0.39800000190734863" fill="none" /><path d="M417.6839904785156 307.3330078125H473.7869873046875" stroke="black" stroke-width="0.39800000190734863" fill="none" /></svg>
