<svg xmlns="http://www.w3.org/2000/svg" xmlns:xlink="http://www.w3.org/1999/xlink" version="1.1" width="160.03" height="46.59" viewBox="85.359 485.178 114.309 33.280" role="img" aria-label="Mathematical expression from source PDF page 297"><defs><path id="font_1_10" d="M.4059906 .1191864C.4059906 .12817383 .39898683 .12817383 .3959961 .12817383 .3869934 .12817383 .38598634 .1251831 .3829956 .1131897 .36099244 .04222107 .30699159 .01222229 .25299073 .01222229 .19198609 .01222229 .11099243 .065200809 .11099243 .21713257 .11099243 .3831482 .19599915 .4242859 .24598694 .4242859 .28399659 .4242859 .33898927 .40924073 .3619995 .3701172 .34999085 .3701172 .31298829 .3701172 .31298829 .32911683 .31298829 .30511476 .32998658 .28811646 .35398866 .28811646 .3769989 .28811646 .3959961 .30210877 .3959961 .33111573 .3959961 .39819337 .32598878 .44628907 .24499512 .44628907 .12799073 .44628907 .034988405 .34210206 .034988405 .21614075 .034988405 .0881958 .1309967-.009765625 .24398804-.009765625 .37599183-.009765625 .4059906 .110183719 .4059906 .1191864Z" />
<path id="font_1_24" d="M.70700076 .34220887C.70700076 .36120606 .6899872 .36120606 .6749878 .36120606H.085998538C.07199097 .36120606 .053985597 .36120606 .053985597 .34321595 .053985597 .32421876 .070999149 .32421876 .085998538 .32421876H.6749878C.68899539 .32421876 .70700076 .32421876 .70700076 .34220887M.70700076 .15579224C.70700076 .17480469 .6899872 .17480469 .6749878 .17480469H.085998538C.07199097 .17480469 .053985597 .17480469 .053985597 .15679932 .053985597 .13780213 .070999149 .13780213 .085998538 .13780213H.6749878C.68899539 .13780213 .70700076 .13780213 .70700076 .15579224Z" />
<path id="font_1_57" d="M.28199769 .24900818C.28199769 .32499696 .27198792 .44898988 .21598816 .5649872 .15699768 .6849823 .07499695 .75 .06399536 .75 .05999756 .75 .054992677 .74798586 .054992677 .74198916 .054992677 .73898318 .054992677 .73698428 .07199097 .71998599 .17199707 .61898806 .22799683 .45399476 .22799683 .25 .22799683 .055999757 .18099976-.11099243 .06498718-.22898865 .054992677-.23799134 .054992677-.23999024 .054992677-.24298096 .054992677-.24897766 .05999756-.25097657 .06399536-.25097657 .07699585-.25097657 .15899658-.1789856 .20799256-.08099365 .25898744 .021011353 .28199769 .1289978 .28199769 .24900818Z" />
<path id="font_1_60" d="M.70700076 .24856568C.70700076 .26757813 .6899872 .26757813 .6749878 .26757813H.39898683V.5440979C.39898683 .558136 .39898683 .5761719 .3809967 .5761719 .3619995 .5761719 .3619995 .5591278 .3619995 .5440979V.26757813H.085998538C.07199097 .26757813 .053985597 .26757813 .053985597 .24957276 .053985597 .23057556 .070999149 .23057556 .085998538 .23057556H.3619995V-.045181276C.3619995-.059173585 .3619995-.07714844 .37998963-.07714844 .39898683-.07714844 .39898683-.060165407 .39898683-.045181276V.23057556H.6749878C.68899539 .23057556 .70700076 .23057556 .70700076 .24856568Z" />
<path id="font_1_78" d="M.43998719 .16799927H.41799928C.4149933 .15098572 .40699769 .09599304 .39698792 .07998657 .3899994 .070999149 .33299256 .070999149 .30299378 .070999149H.117996219C.14498902 .09399414 .20599365 .1579895 .23199463 .18199158 .38398744 .3217926 .43998719 .37374879 .43998719 .47270204 .43998719 .5878906 .34899903 .66503909 .23298645 .66503909 .116989139 .66503909 .04899597 .5658264 .04899597 .4797058 .04899597 .42871095 .09298706 .42871095 .09599304 .42871095 .116989139 .42871095 .14299011 .44371034 .14299011 .475708 .14299011 .5037079 .12399292 .5227051 .09599304 .5227051 .08699036 .5227051 .084991458 .5227051 .08198547 .521698 .100997928 .5899048 .15499878 .6360321 .21998596 .6360321 .30499269 .6360321 .35699464 .56481936 .35699464 .47270204 .35699464 .3877411 .30799867 .313797 .25099183 .24984741L.04899597 .023986817V0H.4139862L.43998719 .16799927Z" />
<path id="font_4_10" d="M.4909973 .28134156C.4909973 .38838197 .42599488 .44140626 .35699464 .44140626 .2689972 .44140626 .1619873 .35035707 .1289978 .21731568L.0309906-.1728363C.02999878-.17784119 .027999878-.18383789 .027999878-.1898346 .027999878-.20484925 .039993287-.21484375 .054992677-.21484375 .069992069-.21484375 .083999637-.20484925 .08999634-.19084168 .09399414-.18183899 .12199402-.061798097 .1539917 .06124878 .17399597 .011230469 .21099854-.009765625 .25-.009765625 .36299134-.009765625 .4909973 .13027954 .4909973 .28134156M.38198854 .12927246C.35198976 .0602417 .2999878 .010223389 .24899292 .010223389 .18099976 .010223389 .1639862 .089263919 .1639862 .101257327 .1639862 .10726929 .18899536 .20230103 .19198609 .21731568 .24299622 .4163971 .34098817 .42138673 .35598756 .42138673 .40098573 .42138673 .42599488 .3803711 .42599488 .3213501 .42599488 .2703247 .39898683 .17129517 .38198854 .12927246Z" />
<path id="font_4_22" d="M.70599368 .018997193C.70599368 .0289917 .69699099 .0289917 .6819916 .0289917 .6269989 .0289917 .6259918 .038009645 .6230011 .0680542L.56199648 .6918793C.55999758 .7118683 .55599978 .7138672 .54499819 .7138672 .5349884 .7138672 .5289917 .7118683 .519989 .69688418L.16999817 .1111145C.1349945 .05203247 .100997928 .03199768 .052993776 .0289917 .041992189 .027999878 .033996583 .027999878 .033996583 .009994507 .033996583 .0039978029 .038986207 0 .04598999 0L.1269989 .0019989014C.1559906 .0019989014 .18798828 0 .21598816 0 .22200012 0 .23399353 0 .23399353 .018997193 .23399353 .027999878 .22599793 .0289917 .21998596 .0289917 .19699097 .0309906 .17799378 .039001466 .17799378 .06304932 .17799378 .07707214 .18399048 .08808899 .19699097 .11012268L.272995 .23632813H.5279999C.5289917 .22731018 .5289917 .21929932 .5299988 .21028137 .5329895 .18423462 .54499819 .080078128 .54499819 .061050416 .54499819 .0309906 .49398805 .0289917 .47799684 .0289917 .46699525 .0289917 .45599366 .0289917 .45599366 .010986328 .45599366 0 .46499635 0 .47099305 0 .48799134 0 .5079956 .0019989014 .5249939 .0019989014H.58200076L.6879883 0C.69499209 0 .70599368 0 .70599368 .018997193M.5249939 .26531983H.2899933L.4909973 .60098269 .5249939 .26531983Z" />
<path id="font_4_32" d="M1.0179901 .6726074C1.0179901 .6826172 1.0110016 .6826172 .99198916 .6826172H.871994C.8470001 .6826172 .84599307 .6816101 .83499148 .66560366L.46998597 .08895874 .394989 .660614C.3919983 .6826172 .3909912 .6826172 .36499024 .6826172H.24099732C.22200012 .6826172 .21299744 .6826172 .21299744 .66360476 .21299744 .6536102 .22200012 .6536102 .23699951 .6536102 .2979889 .6536102 .2979889 .6456146 .2979889 .6346283 .2979889 .6346283 .2979889 .6266327 .2939911 .6116333L.1659851 .10194397C.1539917 .053970338 .1309967 .03199768 .06399536 .0289917 .06098938 .0289917 .04899597 .027999878 .04899597 .010986328 .04899597 0 .057998659 0 .06199646 0L.15299988 .0019989014H.20098877C.21499634 .0019989014 .23199463 0 .24598694 0 .25299073 0 .2639923 0 .2639923 .018997193 .2639923 .027999878 .2539978 .0289917 .25 .0289917 .21699524 .02999878 .18499756 .035995485 .18499756 .07196045 .18499756 .081954959 .18499756 .082962039 .18899536 .096954349L.32699586 .6476135H.32798768L.41099549 .026992798C.4139862 .0029907227 .4149933 0 .42399598 0 .43499757 0 .43998719 .0079956059 .44499208 .016998291L.8470001 .6526184H.84799197L.7029877 .07395935C.69400027 .038986207 .69200137 .0289917 .621994 .0289917 .6029968 .0289917 .59298709 .0289917 .59298709 .010986328 .59298709 0 .60198977 0 .60798647 0 .625 0 .644989 .0019989014 .6619873 .0019989014H.7799988C.7969971 .0019989014 .81799319 0 .83499148 0 .84298709 0 .85398867 0 .85398867 .018997193 .85398867 .0289917 .8450012 .0289917 .8299866 .0289917 .7689972 .0289917 .7689972 .036987306 .7689972 .04698181 .7689972 .04698181 .7689972 .054977418 .7709961 .06297302L.9079895 .6096344C.9169922 .6436157 .9189911 .6536102 .98999026 .6536102 1.0089874 .6536102 1.0179901 .6536102 1.0179901 .6726074Z" />
<path id="font_4_64" d="M.3039856 .14302063C.3039856 .14900208 .2999878 .15200806 .2939911 .15200806 .2939911 .15200806 .28799439 .15200806 .28599549 .14801026 .28599549 .14801026 .28399659 .14601135 .2769928 .1300354 .2559967 .08010864 .20999146 .010192871 .1519928 .010192871 .12199402 .010192871 .11999512 .03517151 .11999512 .057128908 .11999512 .057128908 .11999512 .07710266 .12298584 .08909607L.20098877 .4016571H.29299928C.31199647 .4016571 .32199098 .4016571 .32199098 .41966249 .32199098 .43066407 .31599427 .43066407 .29599 .43066407H.20799256L.24499512 .5769043C.24899292 .5909271 .24899292 .5929413 .24899292 .59994509 .24899292 .61598208 .23599243 .625 .22299195 .625 .21499634 .625 .19198609 .621994 .18399048 .5899353L.14498902 .43066407H.050994874C.0309906 .43066407 .021987915 .43066407 .021987915 .4116516 .021987915 .4016571 .0289917 .4016571 .04798889 .4016571H.13699341L.070999149 .13801575C.06298828 .10307312 .05999756 .09307861 .05999756 .08010864 .05999756 .033172609 .09298706-.009765625 .14898682-.009765625 .25-.009765625 .3039856 .1360321 .3039856 .14302063Z" />
<path id="font_4_66" d="M.45700074 .3743744C.45700074 .4373932 .4249878 .44140626 .4169922 .44140626 .3929901 .44140626 .37098695 .41738893 .37098695 .39738465 .37098695 .38537599 .37799073 .3783722 .38198854 .3743744 .3919983 .3653717 .41799928 .33836366 .41799928 .28633119 .41799928 .24432373 .35798646 .010238647 .23799134 .010238647 .1769867 .010238647 .16499329 .06124878 .16499329 .0982666 .16499329 .14828491 .18798828 .2183075 .21499634 .29034425 .23098755 .33135987 .23498535 .34135438 .23498535 .36135865 .23498535 .40338136 .20498657 .44140626 .1559906 .44140626 .06399536 .44140626 .026992798 .29634095 .026992798 .28834535 .026992798 .28433229 .0309906 .2793274 .037994386 .2793274 .04699707 .2793274 .04798889 .28334046 .051986696 .29734803 .07598877 .38337709 .114990238 .42138673 .15299988 .42138673 .1619873 .42138673 .1789856 .42138673 .1789856 .38838197 .1789856 .36236573 .16799927 .33335877 .15299988 .29533387 .10499573 .16729737 .10499573 .13627625 .10499573 .11227417 .10499573 .090270999 .10798645 .04925537 .13899231 .021240235 .1749878-.009765625 .22499085-.009765625 .23399353-.009765625 .3999939-.009765625 .45700074 .3173523 .45700074 .3743744Z" />
<path id="font_6_28" d="M.47698976 .17900086H.44599916C.44299317 .15899658 .43499757 .10899353 .4229889 .08999634 .4169922 .08198547 .34098817 .08198547 .32499696 .08198547H.14698792L.28199769 .20399475C.2979889 .2190094 .33999635 .2519989 .35598756 .26600648 .41799928 .3230133 .47698976 .37802125 .47698976 .46902467 .47698976 .58802798 .3769989 .66503909 .2519989 .66503909 .13198853 .6651764 .052993776 .574173 .052993776 .48516847 .052993776 .4361725 .09199524 .4291687 .10598755 .4291687 .1269989 .4291687 .1579895 .4441681 .1579895 .48217774 .1579895 .5341797 .10798645 .5341797 .09599304 .5341797 .125 .6070709 .19198609 .6320343 .24099732 .6320343 .33399964 .6320343 .38198854 .55314639 .38198854 .46917726 .38198854 .36517335 .30899049 .2891693 .19099427 .16816712L.06498718 .03817749C.052993776 .026992798 .052993776 .024993897 .052993776 0H.44799806L.47698976 .17900086Z" />
<path id="font_6_29" d="M.4889984 .31877137C.4889984 .42585755 .47799684 .49090577 .44499208 .55496218 .40098573 .6430359 .31999208 .66503909 .2649994 .66503909 .13899231 .66503909 .09298706 .5709839 .07899475 .5429535 .042999269 .4698944 .040985109 .3708191 .040985109 .31877137 .040985109 .25271607 .04399109 .15162659 .09199524 .07156372 .13798523-.0024871827 .21199036-.021484375 .2649994-.021484375 .31298829-.021484375 .39898683-.0064849855 .44898988 .09257507 .48599244 .16464234 .4889984 .2537079 .4889984 .31877137M.3999939 .33078004C.3999939 .27172853 .3999939 .18165589 .3880005 .12561035 .36698915 .020523072 .2979889 .006515503 .2649994 .006515503 .23098755 .006515503 .1619873 .022521973 .14099121 .12760926 .12998963 .18466187 .12998963 .2787323 .12998963 .33078004 .12998963 .3998413 .12998963 .4698944 .14099121 .5249481 .1619873 .6270294 .23999024 .6370239 .2649994 .6370239 .29899598 .6370239 .36799623 .62002566 .3880005 .5289459 .3999939 .4738922 .3999939 .39883424 .3999939 .33078004Z" />
<path id="font_7_36" d="M1.019989 .02003479C1.019989 .031036377 1.0119934 .040039064 1 .040039064 .98399356 .040039064 .98098757 .027038575 .9779968 .010040283L.46598817-2.7149659H.46499635L.24899292-1.4599609 .116989139-1.7199707C.11199951-1.7299652 .11099243-1.7329712 .11099243-1.7329712 .11099243-1.736969 .125-1.7489624 .125-1.7489624L.19299317-1.6169586 .42399598-2.959961C.45498658-2.959961 .46099855-2.959961 .46598817-2.9339753L1.019989 .02003479Z" />
</defs><use data-text="�" xlink:href="#font_7_36" transform="matrix(9.9626,0,0,-9.9626,122.05102,487.001)" fill="black" />
<use data-text="2" xlink:href="#font_6_28" transform="matrix(7.9701,0,0,-7.9701,158.73799,493.08699)" fill="black" />
<use data-text="v" xlink:href="#font_4_66" transform="matrix(11.9552,0,0,-11.9552,152.65,497.425)" fill="black" />
<use data-text="M" xlink:href="#font_4_32" transform="matrix(11.9552,0,0,-11.9552,163.46999,497.425)" fill="black" />
<use data-text="0" xlink:href="#font_6_29" transform="matrix(7.9701,0,0,-7.9701,174.79499,499.219)" fill="black" />
<use data-text="0" xlink:href="#font_6_29" transform="matrix(7.9701,0,0,-7.9701,158.30899,500.38099)" fill="black" />
<use data-text="c" xlink:href="#font_1_10" transform="matrix(11.9552,0,0,-11.9552,86.55901,505.513)" fill="black" />
<use data-text=")" xlink:href="#font_1_57" transform="matrix(11.9552,0,0,-11.9552,91.75953,505.513)" fill="black" />
<use data-text="=" xlink:href="#font_1_24" transform="matrix(11.9552,0,0,-11.9552,109.625019,505.513)" fill="black" />
<use data-text="v" xlink:href="#font_4_66" transform="matrix(11.9552,0,0,-11.9552,100.21601,505.513)" fill="black" />
<use data-text="2" xlink:href="#font_1_78" transform="matrix(11.9552,0,0,-11.9552,133.209,513.714)" fill="black" />
<use data-text="+" xlink:href="#font_1_60" transform="matrix(11.9552,0,0,-11.9552,171.15,513.714)" fill="black" />
<use data-text="ρ" xlink:href="#font_4_10" transform="matrix(11.9552,0,0,-11.9552,139.062,513.714)" fill="black" />
<use data-text="A" xlink:href="#font_4_22" transform="matrix(11.9552,0,0,-11.9552,145.09937,513.714)" fill="black" />
<use data-text="v" xlink:href="#font_4_66" transform="matrix(11.9552,0,0,-11.9552,153.87448,513.714)" fill="black" />
<use data-text="t" xlink:href="#font_4_64" transform="matrix(11.9552,0,0,-11.9552,164.26599,513.714)" fill="black" />
<use data-text="M" xlink:href="#font_4_32" transform="matrix(11.9552,0,0,-11.9552,182.91199,513.714)" fill="black" />
<use data-text="0" xlink:href="#font_6_29" transform="matrix(7.9701,0,0,-7.9701,159.534,515.50698)" fill="black" />
<use data-text="0" xlink:href="#font_6_29" transform="matrix(7.9701,0,0,-7.9701,194.236,515.50698)" fill="black" />
<path d="M133.20899963378906 502.52398681640625H198.968994140625" stroke="black" stroke-width="0.39800000190734863" fill="none" /></svg>
